<svg width="107" height="107" viewBox="0 0 107 107" fill="none" xmlns="http://www.w3.org/2000/svg">
<circle cx="53.5" cy="53.5" r="53.5" fill="black"/>
<circle cx="53.5443" cy="53.5443" r="45.9505" fill="white" stroke="black"/>
<path d="M62.8962 46.6241C63.7605 47.7134 62.9842 49.3183 61.5941 49.3183H56.9196L62.8942 56.8517C63.7585 57.942 62.9821 59.5479 61.5921 59.5479H45.4933C44.1032 59.5479 43.3279 57.942 44.1912 56.8537L50.1647 49.3193H45.4953C44.1053 49.3193 43.3289 47.7134 44.1932 46.6251L52.0079 36.7678C52.1915 36.5363 52.425 36.3493 52.6911 36.2207C52.9571 36.0922 53.2487 36.0254 53.5442 36.0254C53.8397 36.0254 54.1313 36.0922 54.3974 36.2207C54.6634 36.3493 54.8969 36.5363 55.0805 36.7678L62.8962 46.6241Z" fill="black"/>
<path d="M26.4594 70.6172V64.6401H29.6528C30.4782 64.6401 31.0873 64.7881 31.4801 65.0841C31.8729 65.3745 32.0693 65.7473 32.0693 66.2027C32.0693 66.5044 31.9839 66.7748 31.8131 67.0139C31.648 67.2473 31.4061 67.4323 31.0873 67.5689C30.7685 67.7055 30.3758 67.7738 29.909 67.7738L30.0797 67.3127C30.5465 67.3127 30.9478 67.3782 31.2837 67.5091C31.6252 67.64 31.8871 67.8307 32.0693 68.0812C32.2571 68.326 32.351 68.622 32.351 68.9692C32.351 69.4872 32.1347 69.8914 31.7021 70.1817C31.2752 70.472 30.649 70.6172 29.8236 70.6172H26.4594ZM28.4403 69.2083H29.6528C29.8748 69.2083 30.0399 69.1685 30.1481 69.0888C30.2619 69.0091 30.3188 68.8924 30.3188 68.7387C30.3188 68.585 30.2619 68.4683 30.1481 68.3886C30.0399 68.3089 29.8748 68.2691 29.6528 68.2691H28.3037V66.937H29.3796C29.6073 66.937 29.7724 66.9 29.8748 66.826C29.983 66.7463 30.0371 66.6353 30.0371 66.493C30.0371 66.345 29.983 66.234 29.8748 66.16C29.7724 66.086 29.6073 66.049 29.3796 66.049H28.4403V69.2083ZM35.83 70.6172V69.7889L35.6934 69.5669V67.9958C35.6934 67.7681 35.6222 67.5945 35.4799 67.475C35.3433 67.3554 35.1184 67.2957 34.8054 67.2957C34.5947 67.2957 34.3813 67.3298 34.165 67.3981C33.9486 67.4607 33.7636 67.549 33.6099 67.6628L32.9952 66.3906C33.2684 66.2198 33.5957 66.0889 33.9771 65.9978C34.3585 65.9067 34.7314 65.8612 35.0957 65.8612C35.8983 65.8612 36.5188 66.0405 36.9571 66.3991C37.4011 66.7577 37.6231 67.327 37.6231 68.1068V70.6172H35.83ZM34.5065 70.7026C34.1251 70.7026 33.8063 70.6371 33.5502 70.5062C33.294 70.3753 33.1005 70.2016 32.9695 69.9853C32.8386 69.7633 32.7732 69.5185 32.7732 69.251C32.7732 68.9493 32.85 68.6931 33.0037 68.4825C33.1574 68.2719 33.3908 68.1125 33.7039 68.0044C34.0226 67.8962 34.424 67.8421 34.9078 67.8421H35.8812V68.7728H35.2152C35.0103 68.7728 34.8594 68.807 34.7627 68.8753C34.6716 68.9379 34.626 69.0347 34.626 69.1656C34.626 69.2738 34.6659 69.3649 34.7456 69.4389C34.831 69.5072 34.9448 69.5413 35.0871 69.5413C35.2181 69.5413 35.3376 69.5072 35.4458 69.4389C35.5596 69.3649 35.6421 69.251 35.6934 69.0973L35.941 69.6694C35.867 70.0166 35.7105 70.2756 35.4714 70.4464C35.2323 70.6172 34.9107 70.7026 34.5065 70.7026ZM41.0509 70.7026C40.5158 70.7026 40.0404 70.6001 39.6249 70.3952C39.2093 70.1903 38.882 69.9056 38.643 69.5413C38.4096 69.1713 38.2929 68.7501 38.2929 68.2776C38.2929 67.8051 38.4096 67.3867 38.643 67.0224C38.882 66.6581 39.2093 66.3735 39.6249 66.1685C40.0404 65.9636 40.5158 65.8612 41.0509 65.8612C41.6201 65.8612 42.1068 65.9835 42.511 66.2283C42.9151 66.4731 43.1941 66.8118 43.3477 67.2444L41.8535 67.9787C41.7567 67.7624 41.6372 67.6059 41.4949 67.5091C41.3582 67.4123 41.2074 67.364 41.0423 67.364C40.9 67.364 40.7662 67.3981 40.641 67.4664C40.5215 67.5347 40.4247 67.6372 40.3507 67.7738C40.2824 67.9047 40.2482 68.0727 40.2482 68.2776C40.2482 68.4825 40.2824 68.6533 40.3507 68.7899C40.4247 68.9265 40.5215 69.029 40.641 69.0973C40.7662 69.1656 40.9 69.1998 41.0423 69.1998C41.2074 69.1998 41.3582 69.1514 41.4949 69.0546C41.6372 68.9578 41.7567 68.8013 41.8535 68.585L43.3477 69.3193C43.1941 69.7519 42.9151 70.0906 42.511 70.3354C42.1068 70.5802 41.6201 70.7026 41.0509 70.7026ZM45.4076 69.8487L45.4503 67.5774L47.0641 65.9465H49.3439L47.2092 68.1837L46.2444 68.9607L45.4076 69.8487ZM43.7938 70.6172V64.2815H45.7235V70.6172H43.7938ZM47.1665 70.6172L45.8857 68.9948L47.0726 67.5347L49.4976 70.6172H47.1665ZM54.595 70.7026C53.9517 70.7026 53.4508 70.5489 53.0922 70.2415C52.7335 69.9284 52.5542 69.4502 52.5542 68.807V64.8963H54.484V68.7899C54.484 68.9322 54.521 69.0432 54.595 69.1229C54.6746 69.2026 54.7714 69.2425 54.8853 69.2425C55.0504 69.2425 55.1955 69.1998 55.3207 69.1144L55.7818 70.455C55.6338 70.5403 55.4545 70.603 55.2439 70.6428C55.039 70.6827 54.8227 70.7026 54.595 70.7026ZM51.9138 67.3554V65.9465H55.4403V67.3554H51.9138ZM58.6108 70.7026C58.0814 70.7026 57.6118 70.6001 57.2019 70.3952C56.7978 70.1846 56.479 69.8971 56.2456 69.5328C56.0122 69.1685 55.8955 68.7501 55.8955 68.2776C55.8955 67.8051 56.0122 67.3867 56.2456 67.0224C56.479 66.6581 56.7978 66.3735 57.2019 66.1685C57.6118 65.9636 58.0814 65.8612 58.6108 65.8612C59.1402 65.8612 59.6098 65.9636 60.0197 66.1685C60.4295 66.3735 60.7483 66.6581 60.976 67.0224C61.2094 67.3867 61.3261 67.8051 61.3261 68.2776C61.3261 68.7501 61.2094 69.1685 60.976 69.5328C60.7483 69.8971 60.4295 70.1846 60.0197 70.3952C59.6098 70.6001 59.1402 70.7026 58.6108 70.7026ZM58.6108 69.1998C58.7531 69.1998 58.8812 69.1656 58.995 69.0973C59.1089 69.029 59.2 68.9265 59.2683 68.7899C59.3366 68.6476 59.3707 68.4768 59.3707 68.2776C59.3707 68.0727 59.3366 67.9047 59.2683 67.7738C59.2 67.6372 59.1089 67.5347 58.995 67.4664C58.8812 67.3981 58.7531 67.364 58.6108 67.364C58.4685 67.364 58.3404 67.3981 58.2266 67.4664C58.1127 67.5347 58.0216 67.6372 57.9533 67.7738C57.885 67.9047 57.8509 68.0727 57.8509 68.2776C57.8509 68.4768 57.885 68.6476 57.9533 68.7899C58.0216 68.9265 58.1127 69.029 58.2266 69.0973C58.3404 69.1656 58.4685 69.1998 58.6108 69.1998ZM65.8476 70.6172V66.2027H64.0972V64.6401H69.6132V66.2027H67.8628V70.6172H65.8476ZM72.0775 70.7026C71.5481 70.7026 71.0785 70.6001 70.6686 70.3952C70.2645 70.1846 69.9457 69.8971 69.7123 69.5328C69.4789 69.1685 69.3622 68.7501 69.3622 68.2776C69.3622 67.8051 69.4789 67.3867 69.7123 67.0224C69.9457 66.6581 70.2645 66.3735 70.6686 66.1685C71.0785 65.9636 71.5481 65.8612 72.0775 65.8612C72.6069 65.8612 73.0765 65.9636 73.4864 66.1685C73.8962 66.3735 74.215 66.6581 74.4427 67.0224C74.6761 67.3867 74.7928 67.8051 74.7928 68.2776C74.7928 68.7501 74.6761 69.1685 74.4427 69.5328C74.215 69.8971 73.8962 70.1846 73.4864 70.3952C73.0765 70.6001 72.6069 70.7026 72.0775 70.7026ZM72.0775 69.1998C72.2198 69.1998 72.3479 69.1656 72.4618 69.0973C72.5756 69.029 72.6667 68.9265 72.735 68.7899C72.8033 68.6476 72.8375 68.4768 72.8375 68.2776C72.8375 68.0727 72.8033 67.9047 72.735 67.7738C72.6667 67.6372 72.5756 67.5347 72.4618 67.4664C72.3479 67.3981 72.2198 67.364 72.0775 67.364C71.9352 67.364 71.8071 67.3981 71.6933 67.4664C71.5794 67.5347 71.4883 67.6372 71.42 67.7738C71.3517 67.9047 71.3176 68.0727 71.3176 68.2776C71.3176 68.4768 71.3517 68.6476 71.42 68.7899C71.4883 68.9265 71.5794 69.029 71.6933 69.0973C71.8071 69.1656 71.9352 69.1998 72.0775 69.1998ZM78.5134 70.7026C78.1092 70.7026 77.7734 70.6172 77.5058 70.4464C77.244 70.2699 77.0504 70.0053 76.9252 69.6523C76.8 69.2937 76.7374 68.8383 76.7374 68.2861C76.7374 67.7226 76.7943 67.2643 76.9081 66.9114C77.0277 66.5528 77.2184 66.2881 77.4802 66.1173C77.7421 65.9465 78.0865 65.8612 78.5134 65.8612C78.9232 65.8612 79.2989 65.9608 79.6405 66.16C79.982 66.3536 80.2553 66.6325 80.4602 66.9968C80.6651 67.3554 80.7676 67.7852 80.7676 68.2861C80.7676 68.7871 80.6651 69.2197 80.4602 69.584C80.2553 69.9426 79.982 70.2187 79.6405 70.4123C79.2989 70.6058 78.9232 70.7026 78.5134 70.7026ZM75.3968 72.2737V65.9465H77.2326V66.5784L77.2411 68.2861L77.3265 69.9939V72.2737H75.3968ZM78.0523 69.1998C78.1946 69.1998 78.3227 69.1656 78.4365 69.0973C78.5504 69.029 78.6415 68.9265 78.7098 68.7899C78.7781 68.6533 78.8122 68.4854 78.8122 68.2861C78.8122 68.0812 78.7781 67.9104 78.7098 67.7738C78.6415 67.6372 78.5504 67.5347 78.4365 67.4664C78.3227 67.3981 78.1946 67.364 78.0523 67.364C77.91 67.364 77.7819 67.3981 77.6681 67.4664C77.5542 67.5347 77.4631 67.6372 77.3948 67.7738C77.3265 67.9104 77.2924 68.0812 77.2924 68.2861C77.2924 68.4854 77.3265 68.6533 77.3948 68.7899C77.4631 68.9265 77.5542 69.029 77.6681 69.0973C77.7819 69.1656 77.91 69.1998 78.0523 69.1998Z" fill="black"/>
</svg>
