<svg width="104" height="104" viewBox="0 0 104 104" fill="none" xmlns="http://www.w3.org/2000/svg">
<circle cx="52" cy="52" r="52" fill="white"/>
<circle cx="52.0434" cy="52.0434" r="44.6762" fill="#121416" stroke="black"/>
<path d="M61.132 45.3172C61.9721 46.376 61.2175 47.9358 59.8664 47.9358H55.323L61.13 55.258C61.9701 56.3178 61.2155 57.8786 59.8644 57.8786H44.217C42.8659 57.8786 42.1123 56.3178 42.9514 55.26L48.7574 47.9368H44.219C42.8679 47.9368 42.1133 46.376 42.9534 45.3182L50.5489 35.7372C50.7274 35.5122 50.9544 35.3304 51.2129 35.2055C51.4715 35.0805 51.755 35.0156 52.0422 35.0156C52.3294 35.0156 52.6128 35.0805 52.8714 35.2055C53.13 35.3304 53.357 35.5122 53.5354 35.7372L61.132 45.3172Z" fill="white"/>
<path d="M25.7167 68.8613V63.0519H28.8206C29.6229 63.0519 30.2149 63.1957 30.5967 63.4834C30.9784 63.7656 31.1693 64.128 31.1693 64.5706C31.1693 64.8639 31.0863 65.1267 30.9203 65.359C30.7599 65.5859 30.5247 65.7657 30.2149 65.8985C29.9051 66.0313 29.5233 66.0977 29.0696 66.0977L29.2356 65.6495C29.6893 65.6495 30.0794 65.7131 30.4058 65.8404C30.7378 65.9677 30.9923 66.153 31.1693 66.3964C31.3519 66.6344 31.4432 66.9221 31.4432 67.2596C31.4432 67.7631 31.2329 68.1559 30.8125 68.4381C30.3975 68.7202 29.7889 68.8613 28.9866 68.8613H25.7167ZM27.6421 67.492H28.8206C29.0364 67.492 29.1969 67.4532 29.302 67.3758C29.4126 67.2983 29.468 67.1849 29.468 67.0355C29.468 66.8861 29.4126 66.7727 29.302 66.6952C29.1969 66.6178 29.0364 66.579 28.8206 66.579H27.5093V65.2844H28.5551C28.7764 65.2844 28.9368 65.2484 29.0364 65.1765C29.1415 65.099 29.1941 64.9911 29.1941 64.8528C29.1941 64.7089 29.1415 64.601 29.0364 64.5291C28.9368 64.4572 28.7764 64.4212 28.5551 64.4212H27.6421V67.492ZM34.8246 68.8613V68.0563L34.6918 67.8405V66.3135C34.6918 66.0921 34.6227 65.9234 34.4844 65.8072C34.3516 65.691 34.133 65.6329 33.8287 65.6329C33.624 65.6329 33.4165 65.6661 33.2063 65.7325C32.996 65.7934 32.8162 65.8791 32.6668 65.9898L32.0693 64.7532C32.3348 64.5872 32.653 64.46 33.0237 64.3714C33.3944 64.2829 33.7568 64.2386 34.1109 64.2386C34.891 64.2386 35.4941 64.4129 35.9201 64.7615C36.3517 65.1101 36.5675 65.6633 36.5675 66.4213V68.8613H34.8246ZM33.5382 68.9443C33.1675 68.9443 32.8577 68.8807 32.6087 68.7534C32.3597 68.6262 32.1716 68.4574 32.0444 68.2472C31.9171 68.0314 31.8535 67.7935 31.8535 67.5334C31.8535 67.2402 31.9282 66.9912 32.0776 66.7865C32.227 66.5818 32.4538 66.4269 32.7581 66.3218C33.0679 66.2166 33.458 66.1641 33.9283 66.1641H34.8744V67.0687H34.2271C34.0279 67.0687 33.8813 67.1019 33.7872 67.1683C33.6987 67.2291 33.6544 67.3232 33.6544 67.4505C33.6544 67.5556 33.6932 67.6441 33.7706 67.716C33.8536 67.7824 33.9643 67.8156 34.1026 67.8156C34.2298 67.8156 34.346 67.7824 34.4512 67.716C34.5618 67.6441 34.642 67.5334 34.6918 67.3841L34.9325 67.9401C34.8606 68.2776 34.7084 68.5294 34.4761 68.6953C34.2437 68.8613 33.9311 68.9443 33.5382 68.9443ZM39.8991 68.9443C39.379 68.9443 38.917 68.8447 38.5131 68.6455C38.1092 68.4464 37.7911 68.1697 37.5587 67.8156C37.3319 67.456 37.2184 67.0466 37.2184 66.5873C37.2184 66.1281 37.3319 65.7214 37.5587 65.3673C37.7911 65.0132 38.1092 64.7366 38.5131 64.5374C38.917 64.3382 39.379 64.2386 39.8991 64.2386C40.4524 64.2386 40.9254 64.3576 41.3183 64.5955C41.7111 64.8334 41.9822 65.1626 42.1316 65.5831L40.6792 66.2969C40.5852 66.0866 40.469 65.9345 40.3307 65.8404C40.1979 65.7463 40.0512 65.6993 39.8908 65.6993C39.7525 65.6993 39.6225 65.7325 39.5007 65.7989C39.3845 65.8653 39.2905 65.9649 39.2186 66.0977C39.1522 66.2249 39.119 66.3882 39.119 66.5873C39.119 66.7865 39.1522 66.9525 39.2186 67.0853C39.2905 67.2181 39.3845 67.3177 39.5007 67.3841C39.6225 67.4505 39.7525 67.4837 39.8908 67.4837C40.0512 67.4837 40.1979 67.4366 40.3307 67.3426C40.469 67.2485 40.5852 67.0964 40.6792 66.8861L42.1316 67.5998C41.9822 68.0203 41.7111 68.3495 41.3183 68.5875C40.9254 68.8254 40.4524 68.9443 39.8991 68.9443ZM44.1337 68.1144L44.1752 65.9068L45.7437 64.3216H47.9596L45.8848 66.496L44.947 67.2513L44.1337 68.1144ZM42.5651 68.8613V62.7033H44.4407V68.8613H42.5651ZM45.8433 68.8613L44.5984 67.2845L45.752 65.8653L48.109 68.8613H45.8433ZM53.0635 68.9443C52.4382 68.9443 51.9514 68.7949 51.6028 68.4962C51.2542 68.1919 51.0799 67.7271 51.0799 67.1019V63.3008H52.9556V67.0853C52.9556 67.2236 52.9915 67.3315 53.0635 67.409C53.1409 67.4864 53.235 67.5251 53.3456 67.5251C53.5061 67.5251 53.6472 67.4837 53.7689 67.4007L54.2171 68.7036C54.0732 68.7866 53.8989 68.8475 53.6942 68.8862C53.495 68.925 53.2848 68.9443 53.0635 68.9443ZM50.4575 65.691V64.3216H53.8851V65.691H50.4575ZM56.9667 68.9443C56.4521 68.9443 55.9957 68.8447 55.5973 68.6455C55.2045 68.4408 54.8947 68.1614 54.6678 67.8073C54.441 67.4532 54.3275 67.0466 54.3275 66.5873C54.3275 66.1281 54.441 65.7214 54.6678 65.3673C54.8947 65.0132 55.2045 64.7366 55.5973 64.5374C55.9957 64.3382 56.4521 64.2386 56.9667 64.2386C57.4813 64.2386 57.9377 64.3382 58.3361 64.5374C58.7344 64.7366 59.0443 65.0132 59.2656 65.3673C59.4924 65.7214 59.6059 66.1281 59.6059 66.5873C59.6059 67.0466 59.4924 67.4532 59.2656 67.8073C59.0443 68.1614 58.7344 68.4408 58.3361 68.6455C57.9377 68.8447 57.4813 68.9443 56.9667 68.9443ZM56.9667 67.4837C57.105 67.4837 57.2295 67.4505 57.3402 67.3841C57.4508 67.3177 57.5394 67.2181 57.6057 67.0853C57.6721 66.947 57.7053 66.781 57.7053 66.5873C57.7053 66.3882 57.6721 66.2249 57.6057 66.0977C57.5394 65.9649 57.4508 65.8653 57.3402 65.7989C57.2295 65.7325 57.105 65.6993 56.9667 65.6993C56.8284 65.6993 56.7039 65.7325 56.5932 65.7989C56.4826 65.8653 56.3941 65.9649 56.3277 66.0977C56.2613 66.2249 56.2281 66.3882 56.2281 66.5873C56.2281 66.781 56.2613 66.947 56.3277 67.0853C56.3941 67.2181 56.4826 67.3177 56.5932 67.3841C56.7039 67.4505 56.8284 67.4837 56.9667 67.4837ZM64.0006 68.8613V64.5706H62.2993V63.0519H67.6606V64.5706H65.9593V68.8613H64.0006ZM70.0559 68.9443C69.5413 68.9443 69.0848 68.8447 68.6865 68.6455C68.2936 68.4408 67.9838 68.1614 67.757 67.8073C67.5301 67.4532 67.4167 67.0466 67.4167 66.5873C67.4167 66.1281 67.5301 65.7214 67.757 65.3673C67.9838 65.0132 68.2936 64.7366 68.6865 64.5374C69.0848 64.3382 69.5413 64.2386 70.0559 64.2386C70.5704 64.2386 71.0269 64.3382 71.4252 64.5374C71.8236 64.7366 72.1334 65.0132 72.3547 65.3673C72.5816 65.7214 72.695 66.1281 72.695 66.5873C72.695 67.0466 72.5816 67.4532 72.3547 67.8073C72.1334 68.1614 71.8236 68.4408 71.4252 68.6455C71.0269 68.8447 70.5704 68.9443 70.0559 68.9443ZM70.0559 67.4837C70.1942 67.4837 70.3187 67.4505 70.4293 67.3841C70.54 67.3177 70.6285 67.2181 70.6949 67.0853C70.7613 66.947 70.7945 66.781 70.7945 66.5873C70.7945 66.3882 70.7613 66.2249 70.6949 66.0977C70.6285 65.9649 70.54 65.8653 70.4293 65.7989C70.3187 65.7325 70.1942 65.6993 70.0559 65.6993C69.9175 65.6993 69.793 65.7325 69.6824 65.7989C69.5717 65.8653 69.4832 65.9649 69.4168 66.0977C69.3504 66.2249 69.3172 66.3882 69.3172 66.5873C69.3172 66.781 69.3504 66.947 69.4168 67.0853C69.4832 67.2181 69.5717 67.3177 69.6824 67.3841C69.793 67.4505 69.9175 67.4837 70.0559 67.4837ZM76.3113 68.9443C75.9185 68.9443 75.592 68.8613 75.332 68.6953C75.0775 68.5238 74.8893 68.2665 74.7676 67.9235C74.6459 67.5749 74.585 67.1323 74.585 66.5956C74.585 66.0479 74.6404 65.6025 74.751 65.2595C74.8672 64.9109 75.0526 64.6536 75.3071 64.4876C75.5616 64.3216 75.8963 64.2386 76.3113 64.2386C76.7097 64.2386 77.0748 64.3355 77.4068 64.5291C77.7388 64.7172 78.0043 64.9883 78.2035 65.3424C78.4027 65.691 78.5023 66.1087 78.5023 66.5956C78.5023 67.0825 78.4027 67.503 78.2035 67.8571C78.0043 68.2057 77.7388 68.474 77.4068 68.6621C77.0748 68.8503 76.7097 68.9443 76.3113 68.9443ZM73.2821 70.4714V64.3216H75.0664V64.9358L75.0747 66.5956L75.1577 68.2555V70.4714H73.2821ZM75.8631 67.4837C76.0014 67.4837 76.1259 67.4505 76.2366 67.3841C76.3472 67.3177 76.4358 67.2181 76.5022 67.0853C76.5686 66.9525 76.6018 66.7893 76.6018 66.5956C76.6018 66.3965 76.5686 66.2305 76.5022 66.0977C76.4358 65.9649 76.3472 65.8653 76.2366 65.7989C76.1259 65.7325 76.0014 65.6993 75.8631 65.6993C75.7248 65.6993 75.6003 65.7325 75.4897 65.7989C75.379 65.8653 75.2905 65.9649 75.2241 66.0977C75.1577 66.2305 75.1245 66.3965 75.1245 66.5956C75.1245 66.7893 75.1577 66.9525 75.2241 67.0853C75.2905 67.2181 75.379 67.3177 75.4897 67.3841C75.6003 67.4505 75.7248 67.4837 75.8631 67.4837Z" fill="white"/>
</svg>
