<svg width="16" height="16" viewBox="0 0 16 16" fill="none" xmlns="http://www.w3.org/2000/svg">
<path d="M10.707 1.63599C10.8945 1.82351 10.9998 2.07782 10.9998 2.34299C10.9998 2.60815 10.8945 2.86246 10.707 3.04999L5.757 7.99999L10.707 12.95C10.8892 13.1386 10.99 13.3912 10.9877 13.6534C10.9854 13.9156 10.8802 14.1664 10.6948 14.3518C10.5094 14.5372 10.2586 14.6424 9.9964 14.6447C9.7342 14.6469 9.4816 14.5461 9.293 14.364L3.636 8.70699C3.44853 8.51946 3.34321 8.26515 3.34321 7.99999C3.34321 7.73482 3.44853 7.48052 3.636 7.29299L9.293 1.63599C9.48053 1.44852 9.73484 1.3432 10 1.3432C10.2652 1.3432 10.5195 1.44852 10.707 1.63599Z" fill="black"/>
</svg>
