<svg width="16" height="16" viewBox="0 0 16 16" fill="none" xmlns="http://www.w3.org/2000/svg">
<path d="M5.293 1.63599C5.10553 1.82351 5.00021 2.07782 5.00021 2.34299C5.00021 2.60815 5.10553 2.86246 5.293 3.04999L10.243 7.99999L5.293 12.95C5.11084 13.1386 5.01005 13.3912 5.01233 13.6534C5.0146 13.9156 5.11977 14.1664 5.30518 14.3518C5.49059 14.5372 5.7414 14.6424 6.0036 14.6447C6.2658 14.6469 6.5184 14.5461 6.707 14.364L12.364 8.70699C12.5515 8.51946 12.6568 8.26515 12.6568 7.99999C12.6568 7.73482 12.5515 7.48052 12.364 7.29299L6.707 1.63599C6.51947 1.44852 6.26516 1.3432 6 1.3432C5.73484 1.3432 5.48053 1.44852 5.293 1.63599Z" fill="black"/>
</svg>
