<svg width="46" height="39" viewBox="0 0 46 39" fill="none" xmlns="http://www.w3.org/2000/svg">
<path d="M11.4262 3.42187C11.4262 3.62854 11.2596 3.79654 11.0529 3.79654H8.59291C8.38624 3.79654 8.21824 3.62854 8.21824 3.42187V1.24454C8.21824 1.03787 8.38624 0.871203 8.59291 0.871203H11.0529C11.2596 0.871203 11.4262 1.03787 11.4262 1.24454V3.42187ZM11.4262 7.3152C11.4262 7.52187 11.2596 7.68854 11.0529 7.68854H8.59291C8.38624 7.68854 8.21824 7.52187 8.21824 7.3152V5.13787C8.21824 4.9312 8.38624 4.7632 8.59291 4.7632H11.0529C11.2596 4.7632 11.4262 4.9312 11.4262 5.13787V7.3152ZM11.4262 11.2072C11.4262 11.4139 11.2596 11.5819 11.0529 11.5819H8.59291C8.38624 11.5819 8.21824 11.4139 8.21824 11.2072V9.02987C8.21824 8.8232 8.38624 8.6552 8.59291 8.6552H11.0529C11.2596 8.6552 11.4262 8.8232 11.4262 9.02987V11.2072ZM11.4262 15.1005C11.4262 15.3059 11.2596 15.4739 11.0529 15.4739H8.59291C8.38624 15.4739 8.21824 15.3059 8.21824 15.1005V12.9232C8.21824 12.7165 8.38624 12.5485 8.59291 12.5485H11.0529C11.2596 12.5485 11.4262 12.7165 11.4262 12.9232V15.1005ZM6.97424 0.000536533V10.4525V15.4499C6.97424 18.0685 9.09824 20.1925 11.7182 20.1925C12.0449 20.1925 12.3636 20.1605 12.6716 20.0965V0.000536533H6.97424Z" fill="black"/>
<path d="M37.5044 3.42187C37.5044 3.62854 37.3377 3.79654 37.131 3.79654H34.671C34.4644 3.79654 34.2964 3.62854 34.2964 3.42187V1.24454C34.2964 1.03787 34.4644 0.871203 34.671 0.871203H37.131C37.3377 0.871203 37.5044 1.03787 37.5044 1.24454V3.42187ZM37.5044 7.3152C37.5044 7.52187 37.3377 7.68854 37.131 7.68854H34.671C34.4644 7.68854 34.2964 7.52187 34.2964 7.3152V5.13787C34.2964 4.9312 34.4644 4.7632 34.671 4.7632H37.131C37.3377 4.7632 37.5044 4.9312 37.5044 5.13787V7.3152ZM37.5044 11.2072C37.5044 11.4139 37.3377 11.5819 37.131 11.5819H34.671C34.4644 11.5819 34.2964 11.4139 34.2964 11.2072V9.02987C34.2964 8.8232 34.4644 8.6552 34.671 8.6552H37.131C37.3377 8.6552 37.5044 8.8232 37.5044 9.02987V11.2072ZM37.5044 15.1005C37.5044 15.3059 37.3377 15.4739 37.131 15.4739H34.671C34.4644 15.4739 34.2964 15.3059 34.2964 15.1005V12.9232C34.2964 12.7165 34.4644 12.5485 34.671 12.5485H37.131C37.3377 12.5485 37.5044 12.7165 37.5044 12.9232V15.1005ZM33.051 0.000536533V20.0965C33.3604 20.1605 33.679 20.1925 34.0057 20.1925C36.6257 20.1925 38.7497 18.0685 38.7497 15.4499V10.4525V0.000536533H33.051Z" fill="black"/>
<path d="M38.7492 -3.88265e-06H6.97449V10.4533V15.4493C6.97449 18.0693 9.09849 20.1933 11.7185 20.1933C13.0318 20.1933 14.2212 19.6587 15.0798 18.796C15.0772 18.7973 15.0758 18.8 15.0732 18.8013C15.0745 18.8027 15.0758 18.8027 15.0758 18.804C15.9412 17.8973 17.1572 17.3333 18.5065 17.3333C20.4572 17.3333 22.1318 18.5107 22.8612 20.1933H22.8625C23.5918 18.5107 25.2665 17.3333 27.2172 17.3333C28.5665 17.3333 29.7825 17.8973 30.6478 18.804C30.6478 18.8027 30.6492 18.8027 30.6492 18.8013C30.6478 18.8 30.6465 18.7973 30.6438 18.796C31.5025 19.6587 32.6918 20.1933 34.0052 20.1933C36.6252 20.1933 38.7492 18.0693 38.7492 15.4493V10.4533V-3.88265e-06ZM37.8798 0.870663V10.4533V15.4493C37.8798 17.584 36.1412 19.3227 34.0052 19.3227C32.9678 19.3227 31.9932 18.9173 31.2612 18.1813L31.2585 18.184C30.1905 17.0733 28.7558 16.4627 27.2172 16.4627C25.4998 16.4627 23.9118 17.2427 22.8612 18.532C21.8118 17.2427 20.2225 16.4627 18.5065 16.4627C16.9678 16.4627 15.5332 17.0733 14.4638 18.184L14.4625 18.1813C13.7292 18.9173 12.7558 19.3227 11.7185 19.3227C9.58115 19.3227 7.84382 17.584 7.84382 15.4493V10.4533V0.870663H37.8798Z" fill="black"/>
<path d="M38.7492 -3.88265e-06H6.97449V10.4533V15.4493C6.97449 18.0693 9.09849 20.1933 11.7185 20.1933C13.0318 20.1933 14.2212 19.6587 15.0798 18.796C15.0772 18.7973 15.0758 18.8 15.0732 18.8013C15.0745 18.8027 15.0758 18.8027 15.0758 18.804C15.9412 17.8973 17.1572 17.3333 18.5065 17.3333C20.4572 17.3333 22.1318 18.5107 22.8612 20.1933H22.8625C23.5918 18.5107 25.2665 17.3333 27.2172 17.3333C28.5665 17.3333 29.7825 17.8973 30.6478 18.804C30.6478 18.8027 30.6492 18.8027 30.6492 18.8013C30.6478 18.8 30.6465 18.7973 30.6438 18.796C31.5025 19.6587 32.6918 20.1933 34.0052 20.1933C36.6252 20.1933 38.7492 18.0693 38.7492 15.4493V10.4533V-3.88265e-06ZM37.8798 0.870663V10.4533V15.4493C37.8798 17.584 36.1412 19.3227 34.0052 19.3227C32.9678 19.3227 31.9945 18.9173 31.2612 18.1813L31.2585 18.184C30.1905 17.0733 28.7558 16.4627 27.2172 16.4627C25.4998 16.4627 23.9118 17.2427 22.8612 18.532C21.8118 17.2427 20.2225 16.4627 18.5065 16.4627C16.9678 16.4627 15.5332 17.0733 14.4638 18.184L14.4625 18.1813C13.7292 18.9173 12.7558 19.3227 11.7185 19.3227C9.58115 19.3227 7.84382 17.584 7.84382 15.4493V10.4533V0.870663H37.8798Z" fill="black"/>
<path d="M22.8883 12.6979C22.731 12.7112 22.579 12.7126 22.4256 12.7126C17.703 12.7126 15.783 7.91256 15.4416 6.93523C15.847 6.44589 17.411 4.80589 20.243 4.55923C20.275 5.85656 20.5256 10.0259 22.4856 11.3619C22.735 11.4926 23.0043 11.5579 23.2883 11.5579C25.4976 11.5579 28.1856 7.46856 28.8256 6.43923C29.4443 6.69256 29.9283 6.91389 30.211 7.05123C29.7683 8.21523 27.831 12.3886 22.8883 12.6979ZM23.4483 5.16056C23.755 4.94456 25.7856 5.71923 25.7856 5.71923L23.4483 7.63256C22.711 7.53123 23.4483 5.16056 23.4483 5.16056ZM30.8363 6.53656C30.8096 6.52323 30.2736 6.25389 29.4083 5.89123L29.4096 5.88989C29.2376 5.81656 25.715 4.30323 22.3536 3.89656L22.371 3.88989L22.2243 3.88323C21.639 3.81656 21.0603 3.78323 20.507 3.80056V3.80723C16.6056 4.00723 14.8043 6.54723 14.727 6.65656L14.631 6.79923L14.6776 6.96589C14.7003 7.02856 16.6363 13.4459 22.4256 13.4459C22.591 13.4459 22.7616 13.4406 22.9336 13.4272C29.075 13.0432 31.0003 7.02856 31.0203 6.96989L31.1083 6.67656L30.8363 6.53656Z" fill="black"/>
<path d="M13.8519 35.6263C13.6719 35.7623 13.6386 35.8023 13.4413 35.837C13.2479 35.8823 13.1959 35.793 13.1959 35.709V34.5476C13.3266 34.781 13.4573 34.8983 13.7106 35.0863C13.7933 35.1463 13.9146 35.2103 14.0106 35.2556C14.0306 35.369 14.0199 35.5036 13.8519 35.6263ZM14.1786 35.021C13.9173 34.8636 13.6759 34.7943 13.4933 34.645C13.4293 34.5916 13.3319 34.5183 13.2626 34.405C13.2573 34.3783 13.1826 34.249 13.1933 34.2196C13.6799 34.3436 14.1666 34.4503 14.6519 34.5636C14.5746 34.477 14.4893 34.3943 14.4039 34.3023C13.7199 34.1503 13.0413 33.9783 12.3533 33.801C12.4306 33.889 12.5133 33.9783 12.5946 34.0663C12.7133 34.0983 12.8319 34.1276 12.9546 34.1583V35.6556C12.9546 35.7676 13.1559 36.0636 13.2999 36.113C13.5786 36.2236 13.9266 36.081 14.2093 35.7823C14.3479 35.6383 14.4226 35.405 14.3853 35.2863C14.3746 35.2356 14.2973 35.1036 14.1786 35.021Z" fill="black"/>
<path fill-rule="evenodd" clip-rule="evenodd" d="M17.1879 35.056C17.0999 34.9707 17.0119 34.892 16.9293 34.8027C16.0679 34.6467 15.2079 34.476 14.3533 34.2867C14.4359 34.3787 14.5226 34.4547 14.6039 34.548C15.2479 34.688 15.8839 34.8173 16.5226 34.94V35.4893C16.4946 35.4173 16.4039 35.2893 16.3973 35.2867C16.3626 35.244 16.3199 35.1173 16.0866 35.0627C16.0239 35.056 15.8746 35.104 15.8133 35.1813C15.7986 35.1987 15.7853 35.2187 15.7853 35.244C15.7533 35.212 15.7213 35.1667 15.6973 35.1387C15.6839 35.1173 15.5333 34.94 15.2413 34.888C14.9946 34.8373 14.7853 34.9613 14.7253 35.212C14.6666 35.4267 14.7466 35.7027 15.0279 35.9C15.0919 35.94 15.5973 36.2253 15.7693 35.9333C15.7839 35.9 15.7439 35.54 15.4693 35.4893C15.2719 35.4613 15.0919 35.604 15.2639 35.828C15.0879 35.768 14.8839 35.6253 14.9493 35.4053C15.0079 35.2093 15.2693 35.1573 15.4879 35.2373C15.7319 35.3453 15.7853 35.4173 15.8733 35.5707C15.8839 35.5867 15.9266 35.668 15.9226 35.6867C15.9599 35.68 15.9933 35.668 16.0239 35.6613C16.0199 35.6373 16.0119 35.604 16.0066 35.5627C15.9853 35.4653 16.0599 35.3613 16.1666 35.372C16.2906 35.3787 16.3893 35.476 16.3893 35.476C16.4666 35.54 16.5133 35.6493 16.5133 35.6973V36.8133C16.6053 36.896 16.6879 36.9773 16.7719 37.0573V34.9893C16.9106 35.012 17.0466 35.0333 17.1879 35.056Z" fill="black"/>
<path fill-rule="evenodd" clip-rule="evenodd" d="M19.723 34.9896C19.7096 34.9402 19.691 34.8989 19.675 34.8522C19.675 34.8522 19.419 34.6002 19.2296 34.4976C19.0296 34.3696 18.3496 33.9976 17.8936 34.0949C17.4523 34.1842 17.4403 34.2949 17.3256 34.4216C17.3043 34.4496 17.2336 34.6002 17.3096 34.6856C17.3803 34.7616 17.4523 34.8376 17.5283 34.9109C17.311 34.8709 17.0936 34.8376 16.887 34.7976C16.9643 34.8882 17.0523 34.9616 17.135 35.0482C17.2536 35.0629 17.3803 35.0909 17.5043 35.1109C17.5003 35.4096 17.4963 35.7242 17.4963 36.0256V36.9496C17.5776 37.0322 17.663 37.0989 17.751 37.1842V35.1456C17.8883 35.1669 18.0283 35.1842 18.1683 35.2122C18.0883 35.1296 18.007 35.0482 17.9256 34.9696C17.8416 34.9562 17.751 34.9402 17.663 34.9242C17.6336 34.8669 17.5963 34.8016 17.5696 34.7469C17.5576 34.7162 17.6883 34.5682 17.7416 34.5176C17.843 34.4176 17.8616 34.4176 17.9656 34.3789C18.179 34.2949 18.435 34.3309 18.5803 34.3549C18.7936 34.4109 19.119 34.5456 19.311 34.6789C19.4403 34.7816 19.583 34.8882 19.723 34.9896Z" fill="black"/>
<path d="M19.3453 36.586C19.1587 36.7433 19.132 36.7833 18.936 36.8447C18.7347 36.9167 18.6907 36.83 18.6907 36.7433V35.606C18.8267 35.8153 18.956 35.9127 19.2067 36.0633C19.2827 36.122 19.4093 36.1633 19.504 36.2073C19.524 36.306 19.5173 36.442 19.3453 36.586ZM19.8813 36.1793C19.8707 36.138 19.792 36.014 19.6747 35.9527C19.4107 35.826 19.1693 35.782 18.9893 35.662C18.924 35.6167 18.828 35.5487 18.7547 35.4553C18.748 35.4273 18.6787 35.3087 18.684 35.278C18.956 35.31 19.2173 35.3447 19.4853 35.3727C19.396 35.2913 19.316 35.2193 19.2293 35.146C18.772 35.0913 18.312 35.0207 17.8467 34.9553C17.932 35.034 18.008 35.1167 18.0893 35.1873C18.2093 35.2167 18.3293 35.2273 18.448 35.2433V36.7153C18.448 36.83 18.6507 37.0993 18.7933 37.1327C19.0747 37.2007 19.4173 37.022 19.7093 36.702C19.848 36.5433 19.92 36.294 19.8813 36.1793Z" fill="black"/>
<path d="M20.6697 36.7058C20.4817 36.8698 20.4537 36.9164 20.2577 36.9778C20.0617 37.0511 20.015 36.9778 20.015 36.8858V35.7551C20.143 35.9578 20.2724 36.0538 20.519 36.1964C20.607 36.2444 20.7324 36.2858 20.827 36.3151C20.8457 36.4218 20.8377 36.5564 20.6697 36.7058ZM20.999 36.0711C20.7324 35.9404 20.4924 35.9218 20.311 35.8018C20.2444 35.7551 20.147 35.6978 20.0804 35.6044C20.0684 35.5698 20.003 35.4564 20.0057 35.4271C20.4924 35.4671 20.9804 35.5098 21.4737 35.5364C21.3857 35.4671 21.3044 35.4004 21.2164 35.3258C20.535 35.2778 19.8537 35.2164 19.1724 35.1378C19.251 35.2164 19.3297 35.2898 19.4137 35.3684C19.5324 35.3791 19.6484 35.3884 19.771 35.4044V36.8698C19.771 36.9778 19.9724 37.2391 20.1164 37.2698C20.395 37.3311 20.739 37.1431 21.0257 36.8111C21.1617 36.6444 21.239 36.4004 21.2057 36.2924C21.191 36.2378 21.1097 36.1231 20.999 36.0711Z" fill="black"/>
<path fill-rule="evenodd" clip-rule="evenodd" d="M23.9443 35.5703C23.8616 35.509 23.7776 35.4436 23.6963 35.3783C22.8563 35.3863 22.0216 35.369 21.1803 35.325C21.263 35.3876 21.3416 35.465 21.4256 35.537C22.2656 35.5703 23.1003 35.5876 23.9443 35.5703Z" fill="black"/>
<path fill-rule="evenodd" clip-rule="evenodd" d="M23.633 37.6511V35.9684C23.633 35.8538 23.549 35.7831 23.3837 35.7111C23.3837 35.7111 23.273 35.6684 23.2224 35.6684C23.1077 35.6618 23.089 35.6684 22.973 35.7084C22.6824 35.7924 22.4424 36.0071 22.4424 36.0071C22.2704 36.1311 22.1864 36.3458 22.193 36.4258C22.2024 36.4831 22.1864 36.8404 22.7197 36.7978C22.793 36.7898 23.041 36.6698 22.8837 36.4338C22.8077 36.3338 22.7224 36.3484 22.593 36.3684C22.665 36.1551 22.825 36.0911 22.8504 36.0711C22.9624 35.9938 23.0464 35.9538 23.1277 35.9218C23.1864 35.8951 23.2997 35.8884 23.3277 35.9124C23.349 35.9004 23.3677 35.9724 23.3837 36.0124V37.1538C23.3344 37.1484 23.2344 36.9338 22.645 36.9338C22.5424 36.9338 22.4384 36.9391 22.3104 36.9564C22.1864 36.9644 21.9197 36.9498 21.8224 36.8631C21.5584 36.6444 21.6677 36.3338 21.6704 36.2991C21.673 36.2644 21.7517 36.1631 21.7877 36.1311C21.7517 36.0991 21.717 36.0711 21.6864 36.0391C21.673 36.0258 21.5437 36.2258 21.5277 36.2858C21.4264 36.5564 21.493 36.8004 21.577 36.9338C21.6637 37.0751 21.8077 37.2004 22.1864 37.2391C22.645 37.2844 23.1117 37.0951 23.349 37.3084C23.4424 37.3951 23.4144 37.5191 23.4717 37.5538C23.5277 37.5911 23.5784 37.6204 23.633 37.6511Z" fill="black"/>
<path d="M27.1241 36.0065C27.1241 36.0065 26.8881 35.8105 26.8561 35.7825C26.7894 35.7332 26.7254 35.7172 26.5747 35.7452C26.5081 35.7559 26.2934 35.9532 26.3134 35.9132C26.3534 35.7932 26.2854 35.5879 26.1467 35.5105C26.1014 35.4879 26.0507 35.4652 26.0094 35.4412C26.3774 35.4012 26.7481 35.3625 27.1241 35.3105V36.0065ZM27.5681 35.0612C26.7054 35.1665 25.8374 35.2585 24.9761 35.3252C25.0494 35.3719 25.1227 35.4265 25.1921 35.4812C25.2201 35.4879 25.2441 35.4892 25.2681 35.5039C25.3227 35.5319 25.2974 35.6092 25.4721 35.6385C25.6601 35.6612 25.8414 35.5879 26.0014 35.6799C26.1667 35.7612 26.1854 35.9039 26.2001 36.0265C26.1254 36.1132 26.0574 36.1972 25.9894 36.2745C25.8907 36.3999 25.7827 36.5239 25.6534 36.4332C25.6267 36.4159 25.5147 36.2852 25.5134 36.2239C25.4561 36.2719 25.4054 36.3145 25.3494 36.3679C25.3747 36.4159 25.4041 36.4412 25.4494 36.5025C25.5107 36.5812 25.6267 36.7239 25.7201 36.7239C25.7227 36.7305 25.8374 36.7705 26.0094 36.7305C26.0801 36.7132 26.1961 36.5959 26.5134 36.1799C26.7561 35.8585 27.0534 36.0719 27.0827 36.1799C27.0921 36.2172 27.1081 36.2532 27.1241 36.2852V37.0945C27.1987 37.1559 27.2801 37.2225 27.3641 37.2865V35.2865C27.5121 35.2625 27.6654 35.2372 27.8147 35.2159C27.7321 35.1665 27.6507 35.1145 27.5681 35.0612Z" fill="black"/>
<path fill-rule="evenodd" clip-rule="evenodd" d="M29.421 37.1432V36.9779C29.421 36.9779 28.8557 36.5299 28.6117 36.3792C28.357 36.2259 28.2637 36.1859 28.0583 36.0752V36.5166C28.3263 36.6112 28.4743 36.6752 28.7303 36.7832C29.1117 36.9486 29.1783 37.0099 29.421 37.1432Z" fill="black"/>
<path d="M28.5784 35.6251C28.0704 35.9971 28.0998 35.5411 28.2784 35.3864C28.7664 34.9611 28.8798 35.4051 28.5784 35.6251ZM28.1278 35.1851C27.4891 35.7104 28.3558 36.2251 28.8304 35.7331C29.2918 35.2437 28.6251 34.7731 28.1278 35.1851Z" fill="black"/>
<path d="M31.1214 35.2891C31.1214 35.2891 30.8867 35.1171 30.8507 35.0918C30.7854 35.0558 30.7267 35.0411 30.5667 35.0918C30.4987 35.1104 30.2934 35.3251 30.3107 35.2771C30.3494 35.1611 30.2841 34.9611 30.1467 34.9118C30.0974 34.8918 30.0481 34.8678 30.0041 34.8531C30.3747 34.7638 30.7467 34.6878 31.1214 34.5998V35.2891ZM31.5667 34.3051C30.7054 34.5078 29.8374 34.6864 28.9734 34.8531C29.0414 34.8918 29.1161 34.9331 29.1947 34.9744C29.2214 34.9824 29.2401 34.9824 29.2654 34.9944C29.3214 35.0118 29.2961 35.0918 29.4721 35.0918C29.6601 35.1104 29.8441 35.0118 29.9987 35.0731C30.1667 35.1504 30.1854 35.2864 30.1974 35.4051C30.1267 35.4891 30.0534 35.5784 29.9854 35.6678C29.8841 35.8024 29.7747 35.9358 29.6521 35.8584C29.6294 35.8438 29.5147 35.7331 29.5121 35.6611C29.4534 35.7171 29.4001 35.7678 29.3454 35.8251C29.3801 35.8731 29.4001 35.8878 29.4467 35.9531C29.5027 36.0144 29.6294 36.1478 29.7214 36.1384C29.7241 36.1478 29.8374 36.1691 30.0041 36.1131C30.0761 36.0811 30.1934 35.9584 30.5067 35.5144C30.7547 35.1811 31.0467 35.3624 31.0801 35.4678C31.0947 35.5038 31.1094 35.5318 31.1214 35.5624V36.3638C31.1987 36.4158 31.2787 36.4731 31.3614 36.5304V34.5478C31.5121 34.5184 31.6667 34.4771 31.8161 34.4464C31.7294 34.3984 31.6494 34.3518 31.5667 34.3051Z" fill="black"/>
<path fill-rule="evenodd" clip-rule="evenodd" d="M34.1058 33.7773C34.0164 33.7386 33.9364 33.6973 33.8551 33.66C33.0618 33.9066 32.2684 34.128 31.4778 34.3306C31.5591 34.3786 31.6431 34.4173 31.7298 34.4546C31.8151 34.4466 31.9018 34.4173 31.9831 34.3986V35.504C32.0924 35.5626 32.2031 35.6253 32.3164 35.6866C32.4111 35.4653 32.6098 35.216 32.8204 35.012C32.9458 34.8986 33.1204 34.7626 33.3071 34.6546C33.2431 34.8986 33.2191 35.0613 33.2284 35.2373C33.2284 35.3093 33.2471 35.5106 33.3071 35.7333C33.3284 35.8026 33.3524 35.8733 33.3751 35.94C33.4324 35.9533 33.4871 35.9533 33.5404 35.9586C33.4538 35.66 33.4751 35.6373 33.4658 35.568C33.4471 35.4013 33.4884 35.1306 33.4964 35.1106C33.5458 34.7946 33.7884 34.3693 33.7884 34.3693C33.6404 34.3306 33.4964 34.2946 33.3564 34.2546C33.2818 34.296 33.0204 34.4346 32.6831 34.7373C32.5591 34.8533 32.2511 35.1573 32.2511 35.1453V34.3266C32.8658 34.1586 33.4871 33.9773 34.1058 33.7773Z" fill="black"/>
<path d="M43.4691 21.3398C43.0771 21.7558 42.5637 22.1385 42.0237 22.4772C41.1824 22.9932 40.2611 23.4118 39.5571 23.6958C39.2157 23.8332 39.0011 23.9945 38.8891 24.0998L38.9104 21.6038L38.9184 20.9012L38.2784 21.2172C38.2784 21.2172 38.1957 21.2572 38.0437 21.3398C38.8051 20.1518 40.3864 18.3452 43.2011 17.8612L42.7131 18.8732L42.3971 19.5292L43.1424 19.4838L44.5571 19.3945C44.3824 19.9278 44.0451 20.7252 43.4691 21.3398ZM45.1211 18.5052L43.8237 18.5825L44.3384 17.5185L44.6624 16.8438L43.9091 16.9105C38.4424 17.3292 36.6571 22.1105 36.6531 22.1238L36.5811 22.3132L36.6877 22.4958L36.6944 22.5105L36.8984 22.8305L37.2517 22.6785C37.5597 22.5412 37.8184 22.4145 38.0291 22.3118L38.0117 24.4892L38.0731 24.7172L38.0971 24.7532L38.1731 24.8452C38.2117 24.8705 39.0011 24.8452 39.8851 24.4892C40.6304 24.1892 41.5984 23.7518 42.4957 23.2012C43.0971 22.8305 43.6651 22.4012 44.1131 21.9225C45.1491 20.8185 45.5264 19.2585 45.5731 19.0492L45.5757 19.0318L45.7224 18.4665L45.1211 18.5052Z" fill="black"/>
<path d="M7.62533 21.3398L6.96667 20.9572L6.95867 21.7052L6.94 24.1092C6.83867 24.0145 6.65733 23.8492 6.34 23.7225C5.66933 23.4625 4.79467 23.0798 3.97867 22.5985V22.5905C3.364 22.2252 2.776 21.8038 2.336 21.3398C1.76267 20.7318 1.396 19.9278 1.20667 19.3945L2.66933 19.4838L3.412 19.5292L3.09467 18.8732L2.60267 17.8612C5.52 18.3678 7.11333 20.2665 7.84267 21.4558C7.69733 21.3798 7.62533 21.3398 7.62533 21.3398ZM9.16 22.1238C9.15333 22.1105 7.37067 17.3292 1.89467 16.9105L1.136 16.8438L1.464 17.5185L1.98 18.5825L0.618666 18.5052L0 18.4665L0.168 19.0398L0.174667 19.0692C0.232 19.2758 0.656 20.8398 1.684 21.9225C2.19067 22.4492 2.84133 22.9252 3.52133 23.3252C4.39733 23.8452 5.31333 24.2452 6.012 24.5212C6.852 24.8478 7.6 24.8758 7.63867 24.8452L7.71867 24.7532L7.752 24.6972L7.816 24.4718L7.828 22.4145C8.02533 22.5105 8.252 22.6118 8.528 22.7358L8.87867 22.8905L9.08 22.5652L9.12267 22.4972L9.23733 22.3132L9.16 22.1238Z" fill="black"/>
<path d="M38.0017 26.0546C36.8711 26.672 31.2551 29.5106 22.8604 29.5106C14.4924 29.5106 8.93375 26.768 7.80041 26.1653L7.82841 22.4146C9.65241 23.308 15.1657 25.6333 22.8604 25.6333C30.5617 25.6333 36.1817 23.2226 38.0297 22.3106L38.0017 26.0546ZM38.2524 21.2266C38.2351 21.2333 32.1244 24.768 22.8604 24.768C13.5977 24.768 7.63774 21.3493 7.61908 21.3386L6.96708 20.968L6.95908 21.704L6.92708 26.412L6.92041 26.648L7.13641 26.7813C7.15641 26.7893 13.2177 30.3706 22.8604 30.3706C32.5044 30.3706 38.6444 26.676 38.6604 26.6666L38.8724 26.548V26.316L38.9111 21.604L38.9177 20.8533L38.2524 21.2266Z" fill="black"/>
<path d="M43.4691 29.7735C43.0771 30.1908 42.5638 30.5695 42.0185 30.9081C41.1825 31.4281 40.2611 31.8401 39.5571 32.1268C39.2158 32.2628 39.0011 32.4321 38.8891 32.5401L38.9105 30.0375L38.9185 29.3388L38.2785 29.6481C38.2785 29.6481 38.1958 29.6908 38.0438 29.7761C38.8051 28.5855 40.3865 26.7815 43.2011 26.2935L42.7131 27.3028L42.3971 27.9601L43.1425 27.9215L44.5625 27.8255C44.3825 28.3575 44.0451 29.1615 43.4691 29.7735ZM45.7171 26.9041L45.1211 26.9295L43.8238 27.0108L44.3385 25.9548L44.6625 25.2788L43.9091 25.3401C38.4425 25.7721 36.6571 30.5468 36.6531 30.5615L36.5731 30.7601L36.6945 30.9361L36.6998 30.9401L36.9038 31.2668L37.2518 31.1148C37.5598 30.9681 37.8185 30.8495 38.0291 30.7481L38.0118 32.9148L38.0731 33.1455L38.0971 33.1841L38.1731 33.2788C38.2118 33.3055 39.0011 33.2721 39.8851 32.9148C40.6305 32.6228 41.5971 32.1855 42.4905 31.6348C43.0918 31.2601 43.6651 30.8348 44.1131 30.3535C45.1491 29.2561 45.5265 27.6975 45.5731 27.4788L45.5758 27.4601L45.7171 26.9041Z" fill="black"/>
<path d="M7.62543 29.7748L6.96676 29.3881L6.95876 30.1295L6.9401 32.5441C6.83876 32.4455 6.65743 32.2855 6.3401 32.1508C5.66943 31.9001 4.79476 31.5095 3.97876 31.0228C3.3641 30.6615 2.7761 30.2348 2.3361 29.7748C1.76276 29.1628 1.41876 28.3575 1.23876 27.8268L2.6681 27.9215L3.4121 27.9601L3.09476 27.3028L2.60276 26.2935C5.5201 26.7975 7.11343 28.7055 7.84276 29.8948C7.69743 29.8135 7.62543 29.7748 7.62543 29.7748ZM9.1601 30.5615C9.15343 30.5468 7.37076 25.7721 1.89476 25.3401L1.1361 25.2788L1.4641 25.9548L1.97876 27.0108L0.674764 26.9308L0.0827637 26.9041L0.226764 27.4601V27.4788C0.276097 27.6975 0.653431 29.2561 1.6841 30.3535C2.19076 30.8828 2.84143 31.3575 3.52143 31.7561C4.39743 32.2721 5.31343 32.6761 6.0121 32.9535C6.8521 33.2828 7.6001 33.3161 7.63876 33.2788L7.71876 33.1841L7.7521 33.1255L7.8161 32.9015L7.8281 30.8508C8.02543 30.9361 8.2521 31.0508 8.5281 31.1695L8.87876 31.3308L9.0801 30.9988L9.12276 30.9321L9.23743 30.7521L9.1601 30.5615Z" fill="black"/>
<path d="M38.0017 34.4923C36.8711 35.1029 31.2551 37.9483 22.8604 37.9483C14.4924 37.9483 8.93375 35.1989 7.80041 34.5989L7.82841 30.8496C9.65241 31.7309 15.1657 34.0616 22.8604 34.0616C30.5617 34.0616 36.1817 31.6589 38.0297 30.7483L38.0017 34.4923ZM38.2524 29.6576C38.2351 29.6629 32.1244 33.2029 22.8604 33.2029C13.5977 33.2029 7.63774 29.7816 7.61908 29.7763L6.96708 29.4003L6.95908 30.1309L6.92708 34.8416L6.92041 35.0869L7.13641 35.2083C7.15641 35.2189 13.2177 38.7989 22.8604 38.7989C32.5044 38.7989 38.6444 35.1109 38.6604 35.1003L38.8724 34.9736V34.7389L38.9111 30.0376L38.9177 29.2869L38.2524 29.6576Z" fill="black"/>
<path fill-rule="evenodd" clip-rule="evenodd" d="M11.8351 25.3347C11.7524 25.2493 11.6631 25.1547 11.5831 25.064C10.8857 24.864 10.1991 24.6573 9.50439 24.4413C9.58173 24.532 9.66573 24.6187 9.75106 24.7147C9.86839 24.7493 9.99106 24.784 10.1164 24.8267V25.4733C10.1164 25.8027 10.1164 26.1427 10.1244 26.18C10.1684 26.3667 10.3311 26.5227 10.3884 26.584C10.4844 26.66 10.5337 26.6867 10.6751 26.7093C10.6751 26.7093 11.0271 26.744 11.2551 26.5613C11.4351 26.4227 11.5431 26.3187 11.5244 26.064C11.5124 25.9707 11.5084 25.9173 11.4591 25.812C11.3897 25.696 11.3057 25.596 11.1977 25.5467C11.0991 25.5053 10.8471 25.3973 10.7804 25.6213C10.7271 25.8067 10.9657 26 11.1564 26.024C11.1431 26.108 11.1324 26.18 11.0484 26.24C10.5644 26.5667 10.3497 26.3667 10.3497 26.2227V24.8947C10.8471 25.0547 11.3404 25.196 11.8351 25.3347Z" fill="black"/>
<path fill-rule="evenodd" clip-rule="evenodd" d="M12.827 25.6093C12.7457 25.516 12.6604 25.4333 12.5777 25.3386C12.523 25.3213 12.4724 25.3053 12.415 25.2946C12.415 25.2946 12.3537 25.2346 12.3337 25.1893C12.3057 25.1373 12.3004 25.1133 12.2857 25.064C12.275 25.0213 12.2684 24.956 12.2684 24.956C12.2324 24.9253 12.203 24.8906 12.171 24.8533C12.171 24.8533 12.171 25.0826 12.1977 25.2946C12.2404 25.596 12.2804 25.7973 12.275 25.7813C12.2444 25.652 12.159 25.4973 12.159 25.4973C12.0817 25.3213 11.959 25.1893 11.7884 25.116C11.5897 25.0466 11.3977 25.0133 11.3977 25.0133C11.475 25.0973 11.563 25.1893 11.6497 25.2826C11.863 25.316 12.027 25.472 12.107 25.596C12.159 25.6746 12.1764 25.828 12.1764 25.828C12.159 25.7813 12.1764 25.928 12.1764 25.9706V27.3546C12.2524 27.4533 12.3337 27.548 12.415 27.6373V25.4973C12.555 25.532 12.6897 25.5733 12.827 25.6093Z" fill="black"/>
<path d="M14.2648 26.9453V27.484C14.1328 27.2506 13.9754 27.0613 13.8168 26.9146C13.6874 26.7973 13.5994 26.7373 13.3794 26.5973C13.4941 26.5666 13.5688 26.5293 13.6954 26.4906C13.9021 26.44 14.0421 26.424 14.2648 26.4093V26.9453ZM14.5088 26.1773V26.0253C14.8754 26.108 15.2514 26.1906 15.6261 26.272C15.5448 26.18 15.4648 26.0973 15.3888 26.0106C14.4221 25.8026 13.4688 25.564 12.5061 25.316C12.5914 25.412 12.6754 25.4973 12.7648 25.5933C13.2621 25.7253 13.7634 25.8493 14.2661 25.9706V26.14C13.8941 26.14 13.6808 26.172 13.3328 26.2533C13.1581 26.2973 13.0501 26.328 12.8834 26.3946C12.9928 26.5373 13.1061 26.6866 13.2194 26.8386C13.4701 26.9173 13.6194 27.0013 13.8248 27.1613C14.0021 27.3066 14.2888 27.668 14.3381 27.804C14.3608 27.872 14.3861 27.94 14.4141 27.9986C14.4421 28.0373 14.4754 28.0666 14.5021 28.0946V26.4653C14.7701 26.4973 14.9594 26.6573 15.0514 26.76C15.2754 26.9853 15.2594 27.2106 15.2274 27.176C15.2074 27.1386 15.1074 27.0013 14.8488 27.004C14.8488 27.004 14.5914 27.1106 14.7701 27.336C14.9688 27.604 15.4234 27.572 15.4261 27.2106C15.4408 26.584 14.6408 26.1573 14.5088 26.1773Z" fill="black"/>
<path fill-rule="evenodd" clip-rule="evenodd" d="M16.6423 26.4688C16.5596 26.3821 16.4756 26.2968 16.3943 26.2221C16.337 26.2048 16.2796 26.1955 16.2263 26.1901C16.2263 26.1901 16.1676 26.1275 16.1423 26.0955C16.1143 26.0421 16.109 26.0101 16.101 25.9635C16.0863 25.9248 16.0756 25.8541 16.0756 25.8541C16.041 25.8261 16.0116 25.8021 15.9796 25.7728C15.9796 25.7728 15.9796 25.9995 16.0063 26.2048C16.049 26.5075 16.0916 26.7021 16.0863 26.6861C16.049 26.5608 15.969 26.4141 15.969 26.4141C15.8916 26.2435 15.773 26.1221 15.597 26.0621C15.3983 25.9995 15.2076 25.9795 15.2076 25.9795C15.2876 26.0621 15.3703 26.1475 15.4583 26.2395C15.6743 26.2501 15.8343 26.3941 15.921 26.5155C15.969 26.5901 15.9916 26.7435 15.9916 26.7435C15.969 26.6981 15.9916 26.8408 15.9916 26.8888V28.2795C16.065 28.3635 16.1423 28.4475 16.2263 28.5301V26.3861C16.3636 26.4141 16.5076 26.4408 16.6423 26.4688Z" fill="black"/>
<path fill-rule="evenodd" clip-rule="evenodd" d="M20.4926 26.5664C20.4699 26.5304 20.4579 26.4851 20.4419 26.4397C20.4419 26.4397 20.1899 26.2051 20.0019 26.0971C19.7979 25.9797 19.1193 25.6211 18.6659 25.7144C18.2233 25.8131 18.2099 25.9277 18.0979 26.0624C18.0699 26.0797 18.0073 26.2437 18.0819 26.3184C18.1513 26.3864 18.2166 26.4651 18.2913 26.5384C18.0819 26.5077 17.8699 26.4757 17.6539 26.4397C17.7353 26.5224 17.8179 26.5971 17.8993 26.6797C18.0259 26.6984 18.1513 26.7144 18.2686 26.7371V27.6531C18.2686 27.9597 18.2633 28.2624 18.2633 28.5784C18.3499 28.6491 18.4299 28.7184 18.5179 28.8011V26.7664C18.6593 26.7864 18.8006 26.8064 18.9433 26.8224C18.8606 26.7504 18.7766 26.6651 18.6966 26.5944C18.6059 26.5864 18.5179 26.5664 18.4299 26.5611C18.4006 26.4904 18.3686 26.4331 18.3433 26.3717C18.3246 26.3371 18.4486 26.2011 18.5073 26.1477C18.6113 26.0517 18.6286 26.0411 18.7353 26.0024C18.9433 25.9171 19.1966 25.9504 19.3486 25.9797C19.5646 26.0251 19.8859 26.1477 20.0739 26.2851C20.2139 26.3811 20.3553 26.4797 20.4926 26.5664Z" fill="black"/>
<path d="M20.4443 27.9532V28.4639C20.3309 28.3105 20.2496 28.2292 20.0683 28.0865C19.8989 27.9532 19.7229 27.8412 19.4923 27.7425C19.6403 27.6799 19.7229 27.6385 19.8989 27.5719C20.0829 27.5132 20.2283 27.4732 20.4443 27.4292V27.9532ZM20.9016 26.8159C20.1363 26.7599 19.3723 26.6799 18.6083 26.5865C18.6909 26.6599 18.7683 26.7425 18.8496 26.8159C19.3776 26.8799 19.9096 26.9359 20.4443 26.9785V27.1145C20.0963 27.1732 19.9083 27.2305 19.5829 27.3332C19.3363 27.4145 19.1963 27.4732 18.9736 27.5719C19.0803 27.7092 19.1843 27.8412 19.2909 27.9692C19.5403 28.0172 19.6976 28.0785 19.9096 28.1919C20.1749 28.3372 20.2443 28.4132 20.3843 28.5945C20.4669 28.7012 20.5563 28.8785 20.5563 28.8785C20.6016 28.9319 20.6403 28.9852 20.6843 29.0359V26.9932C20.8376 27.0039 20.9949 27.0225 21.1403 27.0305C21.0643 26.9612 20.9803 26.8892 20.9016 26.8159Z" fill="black"/>
<path fill-rule="evenodd" clip-rule="evenodd" d="M23.6814 27.065C23.5947 27.0037 23.5174 26.9397 23.4347 26.877C23.3494 26.869 23.2654 26.8597 23.2227 26.7864C23.2014 26.7504 23.2507 26.721 23.1827 26.645C23.1627 26.6144 23.0307 26.5304 23.0307 26.5304V26.985C23.0614 27.173 23.0907 27.3504 23.1227 27.5317C23.0827 27.445 22.8387 27.1424 22.7734 27.077C22.5281 26.8304 22.4867 26.869 22.3667 26.889C22.0121 26.9717 21.9267 27.1384 21.8707 27.2304C21.8627 27.173 21.7787 27.077 21.7281 27.0304C21.7014 27.0037 21.5921 26.8597 21.3161 26.8464C21.1454 26.8384 20.9814 26.8224 20.8041 26.8157C20.8881 26.889 20.9707 26.961 21.0534 27.029C21.1587 27.0304 21.2574 27.037 21.3614 27.037C21.4427 27.037 21.5774 27.1224 21.5774 27.1224C21.6227 27.1757 21.6681 27.2304 21.7121 27.2917C21.6361 27.2984 21.6147 27.333 21.4907 27.401C21.4907 27.401 21.2361 27.5717 21.3067 27.7717C21.3361 27.865 21.4614 28.029 21.6707 27.9877C21.9214 27.9304 21.9841 27.7717 21.9841 27.7717C21.9841 27.7717 22.1921 28.0904 22.5601 27.9397C22.6294 27.905 22.6294 27.845 22.6587 27.7877C22.7174 27.6477 22.5934 27.5317 22.4867 27.469C22.4574 27.449 22.3681 27.373 22.3027 27.3437C22.3027 27.2917 22.4054 27.2104 22.5561 27.1997C22.7747 27.1824 23.0347 27.5824 23.0307 27.6597C23.0267 27.865 23.0201 28.0717 23.0201 28.2717C23.0147 28.481 23.0121 28.6837 23.0121 28.8944C23.0121 28.725 23.0201 28.5624 23.0201 28.3997C23.0254 28.2397 23.0267 28.0664 23.0347 27.901C23.1121 27.905 23.1894 27.9184 23.2654 27.921V27.077C23.4027 27.077 23.5374 27.077 23.6814 27.065Z" fill="black"/>
<path d="M23.0044 28.8464C22.9378 28.7771 22.7444 28.5131 22.4924 28.4718C22.5418 28.4304 22.6698 28.4104 23.0044 28.1944V28.8464ZM23.0178 27.9011C22.3231 28.2464 22.2578 28.2718 22.1458 28.3398C22.2031 28.4638 22.2578 28.5838 22.3164 28.7024C22.8751 28.7024 23.0644 29.1584 23.0644 29.1584C23.1244 29.1411 23.1938 29.1118 23.2578 29.0878V28.4931C23.2578 28.2931 23.2671 28.0998 23.2671 27.9011C23.1964 27.9238 23.1324 27.8878 23.0178 27.9011Z" fill="black"/>
<path fill-rule="evenodd" clip-rule="evenodd" d="M26.1892 26.53C26.1705 26.486 26.1585 26.4407 26.1385 26.4087C26.1385 26.4087 25.8852 26.2234 25.6985 26.1434C25.4945 26.054 24.8212 25.822 24.3692 26.0007C23.9238 26.1687 23.9078 26.274 23.7932 26.434C23.7732 26.4527 23.7038 26.614 23.7732 26.686C23.8478 26.7434 23.9238 26.7967 23.9945 26.8594C23.7785 26.8687 23.5692 26.878 23.3558 26.8807C23.4372 26.9407 23.5198 27.0034 23.6038 27.0767C23.7198 27.0647 23.8438 27.0607 23.9705 27.0607C23.9678 27.354 23.9625 27.6607 23.9625 27.9594V28.8594C24.0492 28.9194 24.1292 28.9807 24.2158 29.042V27.0514C24.3585 27.038 24.4998 27.038 24.6465 27.038C24.5572 26.978 24.4772 26.91 24.3972 26.846C24.3105 26.846 24.2172 26.8594 24.1292 26.8594C24.0998 26.7967 24.0692 26.75 24.0398 26.6914C24.0252 26.6607 24.1492 26.498 24.2092 26.4354C24.3132 26.3287 24.3278 26.3234 24.4358 26.2647C24.6465 26.1434 24.9025 26.1274 25.0505 26.1394C25.2612 26.1434 25.5852 26.2047 25.7732 26.3034C25.9118 26.382 26.0505 26.4527 26.1892 26.53Z" fill="black"/>
<path d="M26.1423 27.8855V28.3921C26.029 28.2588 25.9396 28.1908 25.769 28.0855C25.6023 27.9721 25.4196 27.9015 25.1916 27.8415C25.337 27.7481 25.4143 27.7028 25.6023 27.6135C25.7836 27.5135 25.9303 27.4535 26.1423 27.3735V27.8855ZM26.6023 26.6975C25.8356 26.7628 25.0743 26.8161 24.3103 26.8468C24.389 26.9135 24.465 26.9775 24.545 27.0375C25.077 27.0041 25.6116 26.9775 26.1423 26.9361V27.0655C25.7943 27.1761 25.609 27.2708 25.281 27.4228C25.033 27.5401 24.9023 27.6161 24.6756 27.7628C24.781 27.8801 24.8863 27.9881 24.9903 28.0948C25.2396 28.0948 25.3996 28.1428 25.6116 28.2161C25.873 28.3201 25.9396 28.3828 26.081 28.5241C26.1676 28.6188 26.2583 28.7815 26.2583 28.7815C26.301 28.8215 26.3436 28.8628 26.3863 28.9135V26.9108C26.5356 26.8961 26.6876 26.8801 26.8423 26.8681C26.761 26.8161 26.685 26.7495 26.6023 26.6975Z" fill="black"/>
<path fill-rule="evenodd" clip-rule="evenodd" d="M29.1202 26.5664C29.0376 26.5224 28.9536 26.469 28.8749 26.4237C28.0789 26.5304 27.2909 26.625 26.4976 26.7024C26.5842 26.7624 26.6682 26.821 26.7536 26.877C26.8362 26.869 26.9216 26.8597 27.0056 26.8464V27.953C27.1162 28.0277 27.2256 28.0944 27.3336 28.1744C27.4282 27.969 27.6256 27.749 27.8456 27.5717C27.9629 27.481 28.1416 27.373 28.3256 27.2984C28.2629 27.5184 28.2349 27.6797 28.2482 27.8597C28.2482 27.9304 28.2629 28.125 28.3309 28.3437C28.3522 28.413 28.3749 28.4877 28.3962 28.5624C28.4522 28.5784 28.5069 28.585 28.5656 28.5997C28.4736 28.289 28.4962 28.2797 28.4856 28.2064C28.4642 28.0384 28.5109 27.7824 28.5109 27.7624C28.5696 27.4584 28.8056 27.093 28.8056 27.093C28.6589 27.0384 28.5229 26.9784 28.3749 26.9104C28.3002 26.9397 28.0442 27.0384 27.7069 27.2917C27.5802 27.381 27.2722 27.649 27.2722 27.6304V26.821C27.8856 26.7437 28.5069 26.6597 29.1202 26.5664Z" fill="black"/>
<path fill-rule="evenodd" clip-rule="evenodd" d="M29.8923 26.5221C30.0256 26.4141 30.1229 26.3715 30.3203 26.3515C30.2376 26.3035 30.1536 26.2648 30.0763 26.2221C29.6656 26.2941 29.2576 26.3608 28.8496 26.4248C28.9323 26.4755 29.0176 26.5221 29.1003 26.5661C29.3309 26.5341 29.5589 26.4968 29.7936 26.4528C29.5203 26.7941 29.5589 26.7301 29.4816 26.9101C29.3923 27.1101 29.4363 27.2981 29.4883 27.4688C29.5469 27.6301 29.6296 27.7715 29.6109 27.8848C29.5776 28.1515 29.5029 28.1861 29.3309 28.3208C29.2509 28.3835 29.0549 28.3915 29.0896 28.4595C29.1109 28.5008 29.1336 28.5181 29.2136 28.5088C29.3123 28.4941 29.7109 28.2715 29.8456 28.0421C29.9736 27.8301 29.9016 27.7101 29.8923 27.4981C29.8843 27.2555 29.7856 27.1608 29.7749 26.8888C29.7749 26.7501 29.7536 26.6341 29.8923 26.5221Z" fill="black"/>
<path fill-rule="evenodd" clip-rule="evenodd" d="M31.3337 26.1576C31.251 26.1229 31.1644 26.0749 31.0844 26.0242C31.027 26.0402 30.9724 26.0522 30.9177 26.0629C30.9177 26.0629 30.8617 26.0322 30.8337 26.0029C30.807 25.9696 30.803 25.9509 30.7857 25.9082C30.7777 25.8749 30.7684 25.8216 30.7684 25.8216C30.7364 25.8016 30.7044 25.7869 30.6724 25.7776C30.6724 25.7776 30.6684 25.9789 30.6977 26.1576C30.747 26.4136 30.7817 26.5829 30.7777 26.5669C30.747 26.4642 30.663 26.3669 30.663 26.3669C30.583 26.2402 30.4644 26.1722 30.2884 26.1802C30.091 26.1949 29.8964 26.2496 29.8964 26.2496C29.9777 26.2962 30.0644 26.3482 30.1484 26.3949C30.3644 26.3282 30.527 26.3949 30.6084 26.4749C30.663 26.5216 30.6777 26.6576 30.6777 26.6576C30.663 26.6149 30.6777 26.7429 30.6777 26.7842V28.0416C30.7537 28.0896 30.8337 28.1296 30.9177 28.1856V26.2429C31.055 26.2229 31.1937 26.1896 31.3337 26.1576Z" fill="black"/>
<path fill-rule="evenodd" clip-rule="evenodd" d="M33.8624 25.5391C33.773 25.5058 33.689 25.4711 33.609 25.4338C32.7437 25.6524 31.8877 25.8484 31.0264 26.0404C31.1157 26.0791 31.205 26.1231 31.2877 26.1724C31.925 26.0324 32.5584 25.8818 33.201 25.7151V26.2231C33.173 26.1578 33.085 26.0884 33.0757 26.0791C33.037 26.0631 32.997 25.9698 32.7637 26.0111C32.7064 26.0244 32.5557 26.1391 32.4877 26.2284C32.477 26.2538 32.4637 26.2791 32.4637 26.3031C32.429 26.2791 32.401 26.2644 32.3744 26.2431C32.357 26.2284 32.2077 26.1391 31.909 26.2044C31.6757 26.2724 31.461 26.4644 31.3997 26.7151C31.3397 26.9404 31.4224 27.1524 31.7024 27.2111C31.765 27.2231 32.2757 27.2578 32.4424 26.9298C32.4637 26.8898 32.429 26.5898 32.1477 26.6604C31.9504 26.7098 31.769 26.9098 31.9397 27.0511C31.765 27.0658 31.5664 27.0218 31.629 26.7938C31.689 26.5898 31.9504 26.4351 32.1584 26.4338C32.4144 26.4138 32.4637 26.4538 32.5504 26.5618C32.5557 26.5671 32.605 26.6244 32.601 26.6338C32.633 26.6151 32.665 26.5978 32.701 26.5858C32.6944 26.5618 32.689 26.5298 32.6824 26.4978C32.665 26.4138 32.7397 26.2938 32.8464 26.2538C32.965 26.2124 33.0637 26.2538 33.0637 26.2538C33.145 26.2858 33.1904 26.3604 33.1904 26.3951V27.4084C33.277 27.4458 33.3624 27.4804 33.4464 27.5124V25.6551C33.5837 25.6218 33.7237 25.5764 33.8624 25.5391Z" fill="black"/>
<path fill-rule="evenodd" clip-rule="evenodd" d="M34.9014 26.8894C35.084 26.6254 34.652 26.5507 34.464 26.816C34.2787 27.0774 34.7107 27.1614 34.9014 26.8894Z" fill="black"/>
<path d="M35.4288 25.7721V26.4748C35.3155 26.3668 35.1888 26.3028 35.0701 26.2721C34.8341 26.1948 34.7315 26.2041 34.5355 26.2121C34.6515 26.0748 34.8088 25.9015 34.8675 25.8495C34.9941 25.7348 35.1235 25.5961 35.1235 25.5961C34.9288 25.4721 34.8501 25.4508 34.7808 25.4108C34.6901 25.3721 34.6155 25.3628 34.5328 25.3548C34.8341 25.2615 35.1275 25.1735 35.4288 25.0748V25.7721ZM35.8115 24.7668C35.0701 25.0135 34.3221 25.2348 33.5808 25.4375C33.6648 25.4775 33.7515 25.5161 33.8448 25.5588C33.8448 25.5588 33.9541 25.6655 34.2675 25.5961C34.6408 25.5161 34.6088 25.5961 34.7355 25.6015C34.6621 25.6721 34.5755 25.7455 34.4768 25.8335C34.3061 25.9788 34.1795 26.1081 34.0141 26.2735C34.1261 26.3481 34.2368 26.4228 34.3448 26.4908C34.6981 26.4041 34.8581 26.3815 35.1421 26.4855C35.4835 26.6055 35.5115 26.7948 35.5688 26.8215C35.6008 26.8415 35.6381 26.8588 35.6755 26.8775V25.0001C35.8048 24.9561 35.9381 24.9108 36.0675 24.8641C35.9848 24.8308 35.8995 24.7921 35.8115 24.7668Z" fill="black"/>
</svg>
