<svg xmlns="http://www.w3.org/2000/svg" width="46" height="39" fill="none" viewBox="0 0 46 39"><path fill="#000" d="M11.426 3.422a.374.374 0 0 1-.373.375h-2.46a.375.375 0 0 1-.375-.375V1.245c0-.207.168-.374.375-.374h2.46c.207 0 .373.167.373.374zm0 3.893a.373.373 0 0 1-.373.374h-2.46a.374.374 0 0 1-.375-.374V5.138c0-.207.168-.375.375-.375h2.46c.207 0 .373.168.373.375zm0 3.892a.374.374 0 0 1-.373.375h-2.46a.375.375 0 0 1-.375-.375V9.03c0-.207.168-.375.375-.375h2.46c.207 0 .373.168.373.375zm0 3.893a.374.374 0 0 1-.373.374h-2.46a.375.375 0 0 1-.375-.373v-2.178c0-.207.168-.374.375-.374h2.46c.207 0 .373.168.373.374zM6.974 0v15.45a4.744 4.744 0 0 0 5.698 4.647V0zM37.504 3.422a.374.374 0 0 1-.373.375h-2.46a.375.375 0 0 1-.375-.375V1.245c0-.207.168-.374.375-.374h2.46c.207 0 .373.167.373.374zm0 3.893a.373.373 0 0 1-.373.374h-2.46a.374.374 0 0 1-.375-.374V5.138c0-.207.168-.375.375-.375h2.46c.207 0 .373.168.373.375zm0 3.892a.374.374 0 0 1-.373.375h-2.46a.375.375 0 0 1-.375-.375V9.03c0-.207.168-.375.375-.375h2.46c.207 0 .373.168.373.375zm0 3.893a.374.374 0 0 1-.373.374h-2.46a.375.375 0 0 1-.375-.373v-2.178c0-.207.168-.374.375-.374h2.46c.207 0 .373.168.373.374zM33.051 0v20.097q.465.095.955.095a4.744 4.744 0 0 0 4.744-4.742V0z"/><path fill="#000" d="M38.75 0H6.973v15.449a4.744 4.744 0 0 0 8.106 3.347l-.007.005.003.003a4.73 4.73 0 0 1 3.43-1.47 4.75 4.75 0 0 1 4.355 2.86h.002a4.75 4.75 0 0 1 4.354-2.86c1.35 0 2.566.563 3.43 1.47q.001 0 .002-.003l-.005-.005a4.744 4.744 0 0 0 8.105-3.347V0m-.87.87V15.45a3.88 3.88 0 0 1-3.875 3.874 3.84 3.84 0 0 1-2.744-1.142l-.002.003a5.56 5.56 0 0 0-4.042-1.721c-1.717 0-3.305.78-4.356 2.069a5.61 5.61 0 0 0-4.355-2.07c-1.538 0-2.973.611-4.042 1.722l-.002-.003a3.85 3.85 0 0 1-2.743 1.142 3.88 3.88 0 0 1-3.875-3.874V.871z"/><path fill="#000" d="M38.75 0H6.973v15.449a4.744 4.744 0 0 0 8.106 3.347l-.007.005.003.003a4.73 4.73 0 0 1 3.43-1.47 4.75 4.75 0 0 1 4.355 2.86h.002a4.75 4.75 0 0 1 4.354-2.86c1.35 0 2.566.563 3.43 1.47q.001 0 .002-.003l-.005-.005a4.744 4.744 0 0 0 8.105-3.347V0m-.87.87V15.45a3.88 3.88 0 0 1-3.875 3.874 3.85 3.85 0 0 1-2.744-1.142l-.002.003a5.56 5.56 0 0 0-4.042-1.721c-1.717 0-3.305.78-4.356 2.069a5.61 5.61 0 0 0-4.355-2.07c-1.538 0-2.973.611-4.042 1.722l-.002-.003a3.85 3.85 0 0 1-2.743 1.142 3.88 3.88 0 0 1-3.875-3.874V.871z"/><path fill="#000" d="M22.888 12.698c-.157.013-.309.015-.462.015-4.723 0-6.643-4.8-6.984-5.778.405-.49 1.969-2.13 4.801-2.376.032 1.298.283 5.467 2.243 6.803q.375.196.802.196c2.21 0 4.898-4.09 5.538-5.119.618.254 1.102.475 1.385.612-.443 1.164-2.38 5.338-7.323 5.647m.56-7.537c.307-.216 2.338.558 2.338.558l-2.338 1.914c-.737-.102 0-2.472 0-2.472m7.388 1.376c-.026-.014-.562-.283-1.428-.646l.002-.001c-.172-.073-3.695-1.587-7.056-1.993l.017-.007-.147-.007c-.585-.066-1.164-.1-1.717-.082v.006c-3.901.2-5.703 2.74-5.78 2.85l-.096.142.047.167c.022.063 1.958 6.48 7.748 6.48q.249.001.508-.019C29.075 13.043 31 7.03 31.02 6.97l.088-.293zM13.852 35.626c-.18.136-.213.176-.41.211-.194.045-.246-.044-.246-.128v-1.161c.13.233.261.35.515.538.082.06.204.124.3.17.02.113.009.248-.16.37m.327-.605c-.262-.157-.503-.227-.686-.376-.064-.053-.161-.127-.23-.24-.006-.027-.08-.156-.07-.185.487.124.974.23 1.459.344-.077-.087-.163-.17-.248-.262a63 63 0 0 1-2.05-.501c.077.088.16.177.24.265q.178.047.36.092v1.498c0 .112.202.408.346.457.279.11.627-.032.91-.33.138-.145.213-.378.175-.497a.56.56 0 0 0-.206-.265"/><path fill="#000" fill-rule="evenodd" d="M17.188 35.056c-.088-.085-.176-.164-.259-.253a68 68 0 0 1-2.576-.516c.083.092.17.168.25.261.645.14 1.28.27 1.92.392v.55a1 1 0 0 0-.126-.203c-.034-.043-.077-.17-.31-.224a.4.4 0 0 0-.274.118c-.014.018-.028.038-.028.063-.032-.032-.064-.077-.088-.105a.75.75 0 0 0-.456-.251c-.246-.05-.456.073-.516.324-.058.215.022.49.303.688.064.04.57.325.741.033.015-.033-.025-.393-.3-.444-.197-.028-.377.115-.205.339-.176-.06-.38-.203-.315-.423.059-.196.32-.248.539-.168.244.108.297.18.385.334.01.016.054.097.05.116.037-.007.07-.019.1-.026-.003-.024-.011-.057-.016-.098-.022-.098.053-.202.16-.191a.4.4 0 0 1 .222.104.36.36 0 0 1 .124.221v1.116c.092.083.175.164.259.244V34.99z" clip-rule="evenodd"/><path fill="#000" fill-rule="evenodd" d="M19.723 34.99c-.013-.05-.032-.091-.048-.138 0 0-.256-.252-.445-.354-.2-.128-.88-.5-1.336-.403-.442.09-.454.2-.568.327-.022.028-.092.178-.016.264q.104.115.218.225c-.217-.04-.434-.073-.641-.113.077.09.165.164.248.25.119.015.245.043.37.063-.005.299-.009.613-.009.915v.924c.082.082.167.149.255.234v-2.038c.137.02.277.038.417.066a10 10 0 0 0-.242-.242l-.263-.046c-.03-.057-.067-.122-.093-.177-.012-.03.118-.179.172-.23.101-.1.12-.1.224-.138.213-.084.469-.048.614-.024a2.7 2.7 0 0 1 .731.324c.13.103.272.21.412.31" clip-rule="evenodd"/><path fill="#000" d="M19.345 36.586c-.186.157-.213.197-.409.259-.201.072-.245-.015-.245-.102v-1.137c.136.21.265.307.516.457.076.059.202.1.297.144.02.099.013.235-.159.379m.536-.407a.47.47 0 0 0-.206-.226c-.264-.127-.506-.171-.686-.291a1 1 0 0 1-.234-.207c-.007-.028-.076-.146-.071-.177.272.032.533.067.801.095a9 9 0 0 0-.256-.227c-.457-.055-.917-.125-1.382-.19.085.078.161.16.242.231.12.03.24.04.359.056v1.472c0 .115.203.384.345.418.282.068.624-.111.916-.431.139-.159.211-.408.172-.523"/><path fill="#000" d="M20.67 36.706c-.188.164-.216.21-.412.272-.196.073-.243 0-.243-.092v-1.13c.128.202.257.298.504.44.088.048.213.09.308.12.019.106.01.24-.157.39m.329-.635c-.267-.13-.507-.15-.688-.27-.067-.046-.164-.103-.23-.197-.013-.034-.078-.148-.075-.177.486.04.974.083 1.468.11a9 9 0 0 1-.258-.211 46 46 0 0 1-2.044-.188c.079.078.158.152.242.23.118.011.234.02.357.036v1.466c0 .108.201.37.345.4.279.061.623-.127.91-.459.136-.167.213-.41.18-.519a.43.43 0 0 0-.207-.22"/><path fill="#000" fill-rule="evenodd" d="M23.944 35.57a8 8 0 0 1-.248-.192c-.84.008-1.674-.009-2.516-.053.083.063.162.14.246.212.84.033 1.674.05 2.518.033M23.633 37.651v-1.683c0-.114-.084-.185-.25-.257 0 0-.11-.043-.16-.043-.115-.006-.134 0-.25.04-.29.084-.53.3-.53.3-.173.123-.257.338-.25.418.01.057-.007.414.527.372.073-.008.321-.128.164-.364-.076-.1-.162-.086-.291-.066.072-.213.232-.277.257-.297.112-.077.196-.117.278-.15.058-.026.172-.033.2-.009.021-.012.04.06.056.1v1.142c-.05-.006-.15-.22-.739-.22-.103 0-.207.005-.335.022-.124.008-.39-.006-.488-.093-.264-.219-.154-.53-.152-.564a.5.5 0 0 1 .118-.168q-.055-.046-.102-.092c-.013-.013-.142.187-.158.247a.75.75 0 0 0 .049.648c.087.141.23.266.61.305.458.045.925-.144 1.162.07.093.086.065.21.123.245a2 2 0 0 0 .161.097" clip-rule="evenodd"/><path fill="#000" d="m27.124 36.007-.268-.224c-.067-.05-.13-.066-.281-.038-.067.01-.282.208-.262.168.04-.12-.028-.325-.166-.402-.046-.023-.096-.046-.138-.07.368-.04.74-.079 1.115-.13zm.444-.946c-.863.105-1.73.197-2.592.264a3 3 0 0 1 .216.156c.028.007.052.008.076.023.055.028.03.105.204.135.188.022.37-.051.53.04.165.082.183.225.198.347q-.111.132-.21.248c-.1.126-.207.25-.337.16-.026-.018-.138-.149-.14-.21a3 3 0 0 0-.164.144c.026.048.055.073.1.134.062.08.178.222.271.222.003.007.117.047.29.007.07-.018.186-.135.503-.551.243-.322.54-.108.57 0a.5.5 0 0 0 .041.105v.81c.075.06.156.127.24.191v-2c.148-.023.301-.049.45-.07a9 9 0 0 1-.246-.155"/><path fill="#000" fill-rule="evenodd" d="M29.421 37.143v-.165s-.565-.448-.81-.599c-.254-.153-.347-.193-.553-.304v.442c.268.094.416.158.672.266.382.166.448.227.691.36" clip-rule="evenodd"/><path fill="#000" d="M28.578 35.625c-.508.372-.478-.084-.3-.239.488-.425.602.02.3.24m-.45-.44c-.639.525.228 1.04.702.548.462-.49-.205-.96-.702-.548M31.121 35.29s-.234-.173-.27-.198c-.066-.036-.124-.05-.284 0-.068.018-.274.233-.256.185.038-.116-.027-.316-.164-.365-.05-.02-.099-.044-.143-.059.37-.09.743-.165 1.117-.253zm.446-.985c-.862.203-1.73.381-2.594.548q.103.059.222.121c.026.008.045.008.07.02.056.018.031.098.207.098.188.018.372-.08.527-.019.168.077.186.213.198.332-.07.084-.144.173-.212.263-.1.134-.21.268-.333.19-.023-.014-.137-.125-.14-.197-.059.056-.112.107-.167.164.035.048.055.063.102.128.056.061.182.195.274.185.003.01.116.031.283-.025.072-.032.19-.155.503-.599.248-.333.54-.152.573-.046.015.036.03.064.041.094v.802q.117.08.24.166v-1.982c.151-.03.306-.07.455-.102z"/><path fill="#000" fill-rule="evenodd" d="M34.106 33.777c-.09-.038-.17-.08-.25-.117q-1.192.369-2.378.67c.081.049.165.087.252.125.085-.008.172-.038.253-.056v1.105q.164.09.333.183c.095-.222.294-.471.504-.675.126-.113.3-.25.487-.357a1.8 1.8 0 0 0-.079.582 2.2 2.2 0 0 0 .147.703c.057.013.112.013.165.019-.086-.299-.065-.322-.074-.391a1.8 1.8 0 0 1 .03-.457c.05-.316.292-.742.292-.742q-.222-.055-.432-.114c-.074.041-.336.18-.673.482-.124.116-.432.42-.432.408v-.818q.925-.251 1.855-.55" clip-rule="evenodd"/><path fill="#000" d="M43.47 21.34c-.393.416-.906.799-1.446 1.137-.842.516-1.763.935-2.467 1.219a2.2 2.2 0 0 0-.668.404l.021-2.496.008-.703-.64.316s-.082.04-.234.123c.761-1.188 2.342-2.995 5.157-3.479l-.488 1.012-.316.656.745-.045 1.415-.09c-.175.534-.512 1.331-1.088 1.946m1.651-2.835-1.297.078.514-1.064.324-.675-.753.066c-5.467.42-7.252 5.2-7.256 5.214l-.072.19.107.182.006.015.204.32.354-.152c.308-.138.566-.264.777-.367l-.017 2.177.061.228.024.036.076.092c.039.026.828 0 1.712-.356.745-.3 1.713-.737 2.61-1.288.602-.37 1.17-.8 1.618-1.279 1.036-1.104 1.413-2.663 1.46-2.873l.003-.017.146-.566zM7.625 21.34l-.658-.383-.008.748-.019 2.404a1.8 1.8 0 0 0-.6-.387c-.67-.26-1.545-.642-2.361-1.123v-.009c-.615-.365-1.203-.786-1.643-1.25-.573-.608-.94-1.412-1.13-1.945l1.463.089.743.045-.317-.656-.492-1.012c2.917.507 4.51 2.406 5.24 3.595q-.219-.115-.218-.116m1.535.784c-.007-.014-1.79-4.795-7.265-5.213l-.759-.067.328.674.516 1.064-1.361-.077L0 18.467l.168.573.007.03c.057.206.481 1.77 1.509 2.852.507.527 1.157 1.003 1.837 1.403.876.52 1.792.92 2.491 1.196.84.327 1.588.355 1.627.324l.08-.092.033-.056.064-.225.012-2.058c.197.096.424.198.7.322l.35.154.202-.325.043-.068.114-.184z"/><path fill="#000" d="M38.002 26.055c-1.13.617-6.747 3.456-15.142 3.456-8.368 0-13.926-2.743-15.06-3.346l.028-3.75c1.824.893 7.338 3.218 15.032 3.218 7.702 0 13.322-2.41 15.17-3.322zm.25-4.828c-.017.006-6.128 3.541-15.392 3.541-9.262 0-15.222-3.419-15.24-3.43l-.653-.37-.008.736-.032 4.708-.007.236.216.133c.02.008 6.082 3.59 15.724 3.59 9.644 0 15.784-3.695 15.8-3.704l.212-.119v-.232l.04-4.712.006-.75zM43.47 29.774c-.393.417-.906.796-1.451 1.134-.837.52-1.758.932-2.462 1.219a2.1 2.1 0 0 0-.668.413l.021-2.502.009-.7-.64.31s-.083.043-.235.128c.761-1.19 2.343-2.994 5.157-3.482l-.488 1.009-.316.657.745-.038 1.42-.096c-.18.532-.517 1.335-1.093 1.947m2.247-2.87-.596.026-1.297.08.515-1.055.324-.676-.754.061c-5.466.432-7.252 5.207-7.256 5.221l-.08.2.121.175.006.004.204.327.348-.152c.308-.147.566-.265.777-.367l-.017 2.167.061.23.024.04.076.094c.039.026.828-.007 1.712-.364a17 17 0 0 0 2.605-1.28c.602-.375 1.175-.8 1.623-1.282 1.036-1.097 1.413-2.655 1.46-2.874l.003-.019zM7.625 29.775l-.658-.387-.008.741-.019 2.415a1.9 1.9 0 0 0-.6-.393c-.67-.25-1.545-.642-2.361-1.128-.615-.361-1.203-.788-1.643-1.248-.573-.612-.917-1.417-1.097-1.948l1.43.095.743.038-.317-.657-.492-1.01c2.917.505 4.51 2.413 5.24 3.602zm1.535.787c-.007-.015-1.79-4.79-7.265-5.222l-.759-.061.328.676.515 1.056-1.304-.08-.592-.027.144.556v.019c.05.219.426 1.777 1.457 2.875.507.529 1.157 1.004 1.837 1.402.876.516 1.792.92 2.491 1.197.84.33 1.588.363 1.627.326l.08-.095.033-.058.064-.224.012-2.051c.197.085.424.2.7.319l.35.16L9.08 31l.043-.067.114-.18z"/><path fill="#000" d="M38.002 34.492c-1.13.61-6.747 3.456-15.142 3.456-8.368 0-13.926-2.75-15.06-3.35l.028-3.748c1.824.88 7.338 3.212 15.032 3.212 7.702 0 13.322-2.403 15.17-3.314zm.25-4.834c-.017.005-6.128 3.545-15.392 3.545-9.262 0-15.222-3.421-15.24-3.427l-.653-.376-.008.73-.032 4.712-.007.245.216.121c.02.01 6.082 3.59 15.724 3.59 9.644 0 15.784-3.687 15.8-3.698l.212-.126v-.235l.04-4.701.006-.751z"/><path fill="#000" fill-rule="evenodd" d="M11.835 25.335a8 8 0 0 1-.252-.271 98 98 0 0 1-2.079-.623c.078.091.162.178.247.274q.177.05.365.112v.646c0 .33 0 .67.008.707.044.187.207.343.264.404a.5.5 0 0 0 .287.125s.352.035.58-.148c.18-.138.288-.242.27-.497-.013-.093-.017-.147-.066-.252a.64.64 0 0 0-.261-.265c-.099-.042-.35-.15-.418.074-.053.186.186.379.376.403-.013.084-.024.156-.108.216-.484.327-.698.127-.698-.017v-1.328c.497.16.99.301 1.485.44" clip-rule="evenodd"/><path fill="#000" fill-rule="evenodd" d="M12.827 25.61c-.081-.094-.167-.177-.25-.271a1 1 0 0 0-.162-.044s-.061-.06-.081-.106c-.028-.052-.034-.076-.048-.125a1 1 0 0 1-.018-.108c-.036-.03-.065-.065-.097-.103 0 0 0 .23.027.442.042.301.082.502.077.486-.03-.129-.116-.284-.116-.284a.7.7 0 0 0-.37-.381 3 3 0 0 0-.391-.103c.077.084.165.176.252.27.213.033.377.189.457.313.052.079.07.232.07.232-.018-.047 0 .1 0 .143v1.384c.075.098.157.193.238.282v-2.14c.14.035.275.076.412.112" clip-rule="evenodd"/><path fill="#000" d="M14.265 26.945v.539a2.4 2.4 0 0 0-.448-.57 2.8 2.8 0 0 0-.438-.317c.115-.03.19-.068.316-.106.207-.051.347-.067.57-.082zm.244-.768v-.152c.366.083.742.166 1.117.247-.081-.092-.161-.175-.237-.261a74 74 0 0 1-2.883-.695c.085.096.17.181.259.277q.746.197 1.501.378v.169a3.5 3.5 0 0 0-.933.113 3 3 0 0 0-.45.142q.166.215.336.444c.251.078.4.162.606.322.177.146.464.507.513.643.023.068.048.136.076.195.028.038.061.068.088.096v-1.63a.9.9 0 0 1 .55.295c.223.225.207.45.175.416-.02-.037-.12-.175-.378-.172 0 0-.258.107-.079.332.199.268.653.236.656-.125.015-.627-.785-1.054-.917-1.034"/><path fill="#000" fill-rule="evenodd" d="M16.642 26.469a5 5 0 0 0-.248-.247 1 1 0 0 0-.168-.032s-.058-.062-.084-.095c-.028-.053-.033-.085-.041-.131a1 1 0 0 1-.025-.11l-.096-.081s0 .227.026.432c.043.303.086.497.08.481-.037-.125-.117-.272-.117-.272a.62.62 0 0 0-.372-.352c-.199-.062-.39-.082-.39-.082l.251.26c.216.01.376.154.463.276.048.074.07.228.07.228-.022-.046 0 .097 0 .145v1.39q.11.127.235.251v-2.144c.138.028.282.055.416.083M20.493 26.566c-.023-.036-.035-.08-.051-.126 0 0-.252-.235-.44-.343-.204-.117-.883-.476-1.336-.383-.443.1-.456.214-.568.348-.028.018-.09.182-.016.256.07.068.135.147.21.22a33 33 0 0 1-.638-.098c.081.082.164.157.245.24.127.018.252.034.37.057v.916c0 .307-.006.61-.006.925.087.071.167.14.255.223v-2.035q.212.031.425.056c-.082-.072-.166-.157-.246-.228-.091-.008-.18-.028-.267-.033-.03-.07-.061-.128-.087-.19-.018-.034.106-.17.164-.223a.5.5 0 0 1 .228-.146c.208-.085.462-.052.614-.022.216.045.537.168.725.305.14.096.281.195.419.281" clip-rule="evenodd"/><path fill="#000" d="M20.444 27.953v.51a1.7 1.7 0 0 0-.376-.377 2.5 2.5 0 0 0-.576-.343c.148-.063.23-.104.407-.171.184-.059.33-.099.545-.143zm.458-1.137a47 47 0 0 1-2.294-.23c.083.074.16.157.242.23q.792.097 1.594.163v.136a5.5 5.5 0 0 0-.861.218c-.247.082-.387.14-.61.239q.159.206.318.397c.25.048.407.11.619.223.265.145.334.221.474.402.083.107.172.284.172.284.046.054.084.107.128.158v-2.043c.154.01.31.03.456.038-.076-.07-.16-.142-.238-.215"/><path fill="#000" fill-rule="evenodd" d="M23.681 27.065c-.086-.061-.164-.125-.246-.188-.086-.008-.17-.017-.212-.09-.022-.037.028-.066-.04-.142a1 1 0 0 0-.152-.115v.455c.03.188.06.365.092.547-.04-.087-.284-.39-.35-.455-.245-.247-.286-.208-.406-.188-.355.083-.44.25-.496.341-.008-.057-.092-.153-.143-.2-.027-.026-.136-.17-.412-.184-.17-.008-.335-.024-.512-.03q.126.11.25.213c.105.001.203.008.307.008.082 0 .216.085.216.085q.069.079.135.17c-.076.006-.097.041-.221.109 0 0-.255.17-.184.37.03.094.154.258.364.217.25-.058.313-.216.313-.216s.208.318.576.168c.07-.035.07-.095.099-.152.058-.14-.066-.256-.172-.319-.03-.02-.119-.096-.184-.125 0-.052.102-.134.253-.144.219-.018.479.382.475.46-.004.205-.01.412-.01.612-.006.209-.009.412-.009.622 0-.169.008-.332.008-.494.005-.16.007-.334.015-.499.077.004.154.017.23.02v-.844c.138 0 .272 0 .416-.012" clip-rule="evenodd"/><path fill="#000" d="M23.004 28.846c-.066-.069-.26-.333-.512-.374.05-.042.178-.062.512-.278zm.014-.945c-.695.345-.76.37-.872.439q.084.186.17.362c.56 0 .748.456.748.456.06-.017.13-.046.194-.07v-.595c0-.2.01-.393.01-.592-.072.023-.136-.013-.25 0"/><path fill="#000" fill-rule="evenodd" d="M26.19 26.53c-.02-.044-.032-.09-.052-.121 0 0-.253-.186-.44-.266-.204-.089-.877-.321-1.329-.142-.445.168-.461.273-.576.433-.02.019-.09.18-.02.252.075.057.15.11.221.173q-.32.016-.638.022c.081.06.164.122.248.196q.175-.017.367-.016c-.003.293-.009.6-.009.898v.9c.087.06.167.122.254.183v-1.99c.142-.014.284-.014.43-.014-.089-.06-.169-.128-.249-.192-.086 0-.18.013-.268.013-.03-.062-.06-.109-.09-.168-.014-.03.11-.193.17-.256.104-.106.119-.112.227-.17.21-.122.466-.138.614-.126.211.004.535.066.723.164.139.079.277.15.416.227" clip-rule="evenodd"/><path fill="#000" d="M26.142 27.886v.506a1.4 1.4 0 0 0-.373-.306 1.8 1.8 0 0 0-.577-.244c.145-.094.222-.14.41-.229.182-.1.328-.16.54-.24zm.46-1.188c-.766.065-1.528.118-2.292.149q.117.1.235.19c.532-.033 1.067-.06 1.597-.1v.128c-.348.111-.533.206-.861.358a4.5 4.5 0 0 0-.605.34q.158.174.314.332c.25 0 .41.048.622.121.261.104.328.167.469.308.087.095.177.258.177.258.043.04.086.08.128.131v-2.002q.225-.023.456-.043c-.081-.052-.157-.118-.24-.17"/><path fill="#000" fill-rule="evenodd" d="M29.12 26.566c-.082-.044-.166-.097-.245-.142-.796.106-1.584.201-2.377.278q.128.09.256.175.124-.011.252-.03v1.106c.11.075.22.141.328.221.094-.205.292-.425.512-.602.117-.091.296-.199.48-.274a1.5 1.5 0 0 0-.078.562c0 .07.015.265.083.484q.033.105.065.218c.056.016.11.023.17.038-.092-.311-.07-.32-.08-.394-.022-.168.025-.424.025-.444.059-.304.295-.669.295-.669a6 6 0 0 1-.431-.183c-.075.03-.33.128-.668.382-.127.089-.435.357-.435.338v-.809a73 73 0 0 0 1.848-.255" clip-rule="evenodd"/><path fill="#000" fill-rule="evenodd" d="M29.892 26.522a.7.7 0 0 1 .428-.17c-.082-.049-.166-.087-.244-.13q-.615.108-1.226.203.125.075.25.141.343-.048.694-.113c-.274.341-.235.277-.312.457-.09.2-.046.388.006.559.059.161.142.302.123.416-.033.266-.108.301-.28.436-.08.063-.276.07-.241.138.02.042.044.06.124.05.098-.015.497-.238.632-.467.128-.212.056-.332.046-.544-.008-.242-.106-.337-.117-.61 0-.138-.021-.254.117-.366" clip-rule="evenodd"/><path fill="#000" fill-rule="evenodd" d="M31.334 26.158a2 2 0 0 1-.25-.134 2 2 0 0 1-.166.039s-.056-.03-.084-.06c-.027-.033-.031-.052-.048-.095-.008-.033-.018-.086-.018-.086a.4.4 0 0 0-.096-.044s-.004.2.026.38c.049.256.084.425.08.409a.7.7 0 0 0-.115-.2.39.39 0 0 0-.375-.187c-.197.015-.392.07-.392.07.082.046.168.098.252.145.216-.067.379 0 .46.08.055.047.07.183.07.183-.015-.043 0 .085 0 .126v1.258c.076.048.156.088.24.144v-1.943c.137-.02.276-.053.416-.085" clip-rule="evenodd"/><path fill="#000" fill-rule="evenodd" d="M33.862 25.54a3 3 0 0 1-.253-.106c-.865.218-1.721.414-2.583.606a2 2 0 0 1 .262.132c.637-.14 1.27-.29 1.913-.457v.508c-.028-.065-.116-.135-.125-.144-.039-.016-.079-.11-.312-.068-.058.013-.208.128-.276.217-.011.026-.024.051-.024.075-.035-.024-.063-.039-.09-.06-.017-.015-.166-.104-.465-.039a.74.74 0 0 0-.51.511c-.06.225.023.437.303.496.063.012.574.047.74-.281.022-.04-.013-.34-.294-.27-.198.05-.379.25-.208.391-.175.015-.374-.03-.311-.257.06-.204.321-.359.53-.36.255-.02.305.02.391.128.006.005.055.062.051.072a.5.5 0 0 1 .1-.048q-.01-.038-.019-.088c-.017-.084.058-.204.164-.244a.33.33 0 0 1 .218 0c.081.032.126.106.126.141v1.013q.13.056.256.104v-1.857c.138-.033.278-.079.416-.116M34.901 26.89c.183-.265-.249-.34-.437-.074-.185.261.247.345.437.073" clip-rule="evenodd"/><path fill="#000" d="M35.429 25.772v.703a.8.8 0 0 0-.359-.203c-.236-.077-.339-.068-.535-.06.117-.137.274-.31.333-.363.126-.114.255-.253.255-.253-.194-.124-.273-.145-.342-.185a.8.8 0 0 0-.248-.056c.301-.093.594-.181.896-.28zm.383-1.005a43 43 0 0 1-2.231.67q.125.06.264.122s.11.107.422.037c.374-.08.342 0 .468.006-.073.07-.16.143-.258.232-.17.145-.297.274-.463.44q.169.113.33.217c.354-.087.514-.11.798-.006.341.12.37.31.427.337.032.02.07.037.106.056V25l.393-.136c-.083-.033-.168-.072-.256-.097"/></svg>