<svg width="131" height="131" viewBox="0 0 131 131" fill="none" xmlns="http://www.w3.org/2000/svg">
<path d="M65.5 0C101.675 0 131 29.3253 131 65.5C131 101.675 101.675 131 65.5 131C29.3253 131 0 101.675 0 65.5C0 29.3253 29.3253 0 65.5 0ZM65 83C58.3726 83 53 88.3726 53 95C53 101.627 58.3726 107 65 107C71.6274 107 77 101.627 77 95C77 88.3726 71.6274 83 65 83ZM37 53C30.3726 53 25 58.3726 25 65C25 71.6274 30.3726 77 37 77C43.6274 77 49 71.6274 49 65C49 58.3726 43.6274 53 37 53ZM94 53C87.3726 53 82 58.3726 82 65C82 71.6274 87.3726 77 94 77C100.627 77 106 71.6274 106 65C106 58.3726 100.627 53 94 53ZM65 24C58.3726 24 53 29.3726 53 36C53 42.6274 58.3726 48 65 48C71.6274 48 77 42.6274 77 36C77 29.3726 71.6274 24 65 24Z" fill="#231F20"/>
</svg>
