<svg width="70" height="70" viewBox="0 0 70 70" fill="none" xmlns="http://www.w3.org/2000/svg">
<circle opacity="0.1" cx="35" cy="35" r="35" fill="#292929"/>
<path d="M30.6002 32.125H23.4001C23.4001 29.5019 25.5505 27.3751 28.2001 27.3751V25C24.2249 25 21 28.1892 21 32.125V41.6252C21 42.9309 22.0804 44 23.4001 44H30.6002C31.9196 44 33 42.9309 33 41.6252V34.5002C33 33.1941 31.9196 32.125 30.6002 32.125Z" fill="#292929"/>
<path d="M46.6002 32.125H39.4001C39.4001 29.5019 41.5505 27.3751 44.2001 27.3751V25C40.2249 25 37 28.1892 37 32.125V41.6252C37 42.9309 38.0804 44 39.4001 44H46.6002C47.9196 44 49 42.9309 49 41.6252V34.5002C49 33.1941 47.9196 32.125 46.6002 32.125Z" fill="#292929"/>
</svg>
