<svg width="28" height="28" viewBox="0 0 28 28" fill="none" xmlns="http://www.w3.org/2000/svg">
<path d="M23.1421 12.3648C23.9871 13.4298 23.2281 14.9988 21.8691 14.9988H17.2991L23.1401 22.3638C23.9851 23.4298 23.2261 24.9998 21.8671 24.9998H6.12812C4.76912 24.9998 4.01112 23.4298 4.85512 22.3658L10.6951 14.9998H6.13012C4.77112 14.9998 4.01212 13.4298 4.85712 12.3658L12.4971 2.72876C12.6766 2.50243 12.9049 2.31959 13.165 2.1939C13.4251 2.06821 13.7103 2.00293 13.9991 2.00293C14.288 2.00293 14.5731 2.06821 14.8332 2.1939C15.0933 2.31959 15.3216 2.50243 15.5011 2.72876L23.1421 12.3648Z" fill="black"/>
</svg>
